<?xml version="1.0" encoding="UTF-8" standalone="no"?>
<!-- Generator: Adobe Illustrator 19.0.0, SVG Export Plug-In . SVG Version: 6.00 Build 0)  -->

<svg
   xmlns:dc="http://purl.org/dc/elements/1.1/"
   xmlns:cc="http://creativecommons.org/ns#"
   xmlns:rdf="http://www.w3.org/1999/02/22-rdf-syntax-ns#"
   xmlns:svg="http://www.w3.org/2000/svg"
   xmlns="http://www.w3.org/2000/svg"
   xmlns:sodipodi="http://sodipodi.sourceforge.net/DTD/sodipodi-0.dtd"
   xmlns:inkscape="http://www.inkscape.org/namespaces/inkscape"
   version="1.1"
   id="Layer_1"
   x="0px"
   y="0px"
   viewBox="0 0 124.76901 124.70888"
   xml:space="preserve"
   sodipodi:docname="do-circ.svg"
   width="124.76901"
   height="124.70888"
   inkscape:version="0.92.3 (2405546, 2018-03-11)"><metadata
   id="metadata61"><rdf:RDF><cc:Work
       rdf:about=""><dc:format>image/svg+xml</dc:format><dc:type
         rdf:resource="http://purl.org/dc/dcmitype/StillImage" /><dc:title></dc:title></cc:Work></rdf:RDF></metadata><defs
   id="defs59" /><sodipodi:namedview
   pagecolor="#ffffff"
   bordercolor="#666666"
   borderopacity="1"
   objecttolerance="10"
   gridtolerance="10"
   guidetolerance="10"
   inkscape:pageopacity="0"
   inkscape:pageshadow="2"
   inkscape:window-width="1600"
   inkscape:window-height="832"
   id="namedview57"
   showgrid="false"
   fit-margin-top="0"
   fit-margin-left="0"
   fit-margin-right="0"
   fit-margin-bottom="0"
   inkscape:zoom="0.49337748"
   inkscape:cx="300"
   inkscape:cy="62.5"
   inkscape:window-x="0"
   inkscape:window-y="32"
   inkscape:window-maximized="1"
   inkscape:current-layer="g54" />
<style
   type="text/css"
   id="style2">
	.st0{fill:#0080FF;}
	.st1{fill-rule:evenodd;clip-rule:evenodd;fill:#0080FF;}
</style>
<g
   id="g54"
   transform="translate(-2,-2.2911226)">
	
	<g
   id="XMLID_2369_">
		<g
   id="g51">
			<g
   id="XMLID_281_">
				<g
   id="XMLID_282_">
					<g
   id="g32">
						<g
   id="XMLID_283_">
							<g
   id="XMLID_287_">
								<path
   id="XMLID_288_"
   class="st0"
   d="m 64.4,127 v -24.2 c 25.6,0 45.5,-25.4 35.7,-52.3 -3.6,-10 -11.6,-17.9 -21.6,-21.6 -27,-9.8 -52.3,10 -52.3,35.7 0,0 0,0 0,0 L 2,64.7 C 2,23.8 41.5,-8 84.3,5.4 103,11.2 117.9,26.1 123.7,44.8 137,87.6 105.2,127 64.4,127 Z"
   inkscape:connector-curvature="0"
   style="fill:#0080ff" />
							</g>
							<polygon
   id="XMLID_286_"
   class="st1"
   points="40.4,78.9 40.4,78.9 64.4,78.9 64.4,78.9 64.4,102.9 40.4,102.9 "
   style="clip-rule:evenodd;fill:#0080ff;fill-rule:evenodd" />
							<polygon
   id="XMLID_285_"
   class="st1"
   points="21.8,121.5 21.8,102.9 40.4,102.9 40.4,121.5 40.3,121.5 21.8,121.5 "
   style="clip-rule:evenodd;fill:#0080ff;fill-rule:evenodd" />
							<path
   id="XMLID_284_"
   class="st1"
   d="M 21.9,102.9 H 6.3 c 0,0 0,0 0,0 V 87.4 c 0,0 0,0 0,0 h 15.5 c 0,0 0,0 0,0 v 15.5 z"
   inkscape:connector-curvature="0"
   style="clip-rule:evenodd;fill:#0080ff;fill-rule:evenodd" />
						</g>
					</g>
				</g>
			</g>
			
		</g>
	</g>
</g>
</svg>