<?xml version="1.0" encoding="UTF-8" standalone="no"?>
<!-- Generator: Adobe Illustrator 19.2.1, SVG Export Plug-In . SVG Version: 6.00 Build 0)  -->

<svg
   xmlns:dc="http://purl.org/dc/elements/1.1/"
   xmlns:cc="http://creativecommons.org/ns#"
   xmlns:rdf="http://www.w3.org/1999/02/22-rdf-syntax-ns#"
   xmlns:svg="http://www.w3.org/2000/svg"
   xmlns="http://www.w3.org/2000/svg"
   xmlns:sodipodi="http://sodipodi.sourceforge.net/DTD/sodipodi-0.dtd"
   xmlns:inkscape="http://www.inkscape.org/namespaces/inkscape"
   version="1.1"
   id="Layer_1"
   x="0px"
   y="0px"
   viewBox="0 0 4511.5562 957.54905"
   xml:space="preserve"
   sodipodi:docname="logo-white-horizontal.svg"
   width="4511.5562"
   height="957.54907"
   inkscape:version="0.92.4 (5da689c313, 2019-01-14)"><metadata
   id="metadata113"><rdf:RDF><cc:Work
       rdf:about=""><dc:format>image/svg+xml</dc:format><dc:type
         rdf:resource="http://purl.org/dc/dcmitype/StillImage" /><dc:title /></cc:Work></rdf:RDF></metadata><defs
   id="defs111"><style
   id="style304">.cls-1{fill:#f2f2f2;}.cls-2{fill:#fff;}.cls-3{fill:#e6b35a;}.cls-4{fill:#424242;}.cls-5{fill:#51a7f9;}.cls-6{fill:#a8d6ff;}.cls-7{fill:#0365c0;}.cls-8{fill:#164f86;}.cls-9{fill:#002452;}.cls-10{fill:#000643;}</style>
	
	

	
	
	
	
	
	
	
	
	
	
	
	
	
	
	
	
	
	
	
	
	
	
	
	
	
	
	
	
	
	
	
	
	
	
	
	
	
	
	
	

		
		
		
		
		
		
		
		
	<style
   id="style2069">.cls-1{fill:#f2f2f2;}.cls-2{fill:#fff;}.cls-3{fill:#e6b35a;}.cls-4{fill:#424242;}.cls-5{fill:#51a7f9;}.cls-6{fill:#a8d6ff;}.cls-7{fill:#0365c0;}.cls-8{fill:#164f86;}.cls-9{fill:#002452;}.cls-10{fill:#000643;}</style><style
   id="style2501">.cls-1{fill:#f2f2f2;}.cls-2{fill:#fff;}.cls-3{fill:#e6b35a;}.cls-4{fill:#424242;}.cls-5{fill:#51a7f9;}.cls-6{fill:#a8d6ff;}.cls-7{fill:#0365c0;}.cls-8{fill:#164f86;}.cls-9{fill:#002452;}.cls-10{fill:#000643;}</style><marker
   inkscape:stockid="TriangleOutL"
   orient="auto"
   refY="0"
   refX="0"
   id="marker5675"
   style="overflow:visible"
   inkscape:isstock="true"><path
     inkscape:connector-curvature="0"
     id="path5673"
     d="M 5.77,0 -2.88,5 V -5 Z"
     style="fill:#000000;fill-opacity:1;fill-rule:evenodd;stroke:#000000;stroke-width:1.00000003pt;stroke-opacity:1"
     transform="scale(0.8)" /></marker><marker
   inkscape:stockid="TriangleOutL"
   orient="auto"
   refY="0"
   refX="0"
   id="marker5607"
   style="overflow:visible"
   inkscape:isstock="true"><path
     inkscape:connector-curvature="0"
     id="path5605"
     d="M 5.77,0 -2.88,5 V -5 Z"
     style="fill:#000000;fill-opacity:1;fill-rule:evenodd;stroke:#000000;stroke-width:1.00000003pt;stroke-opacity:1"
     transform="scale(0.8)" /></marker><marker
   inkscape:stockid="TriangleOutL"
   orient="auto"
   refY="0"
   refX="0"
   id="marker4665"
   style="overflow:visible"
   inkscape:isstock="true"><path
     inkscape:connector-curvature="0"
     id="path4663"
     d="M 5.77,0 -2.88,5 V -5 Z"
     style="fill:#ffffff;fill-opacity:1;fill-rule:evenodd;stroke:#ffffff;stroke-width:1.00000003pt;stroke-opacity:1"
     transform="scale(0.8)" /></marker><marker
   inkscape:stockid="TriangleOutL"
   orient="auto"
   refY="0"
   refX="0"
   id="marker1839"
   style="overflow:visible"
   inkscape:isstock="true"><path
     inkscape:connector-curvature="0"
     id="path1837"
     d="M 5.77,0 -2.88,5 V -5 Z"
     style="fill:#ffffff;fill-opacity:1;fill-rule:evenodd;stroke:#ffffff;stroke-width:1.00000003pt;stroke-opacity:1"
     transform="scale(0.8)" /></marker><style
   id="style3292">.cls-1{fill:#f2f2f2;}.cls-2{fill:#fff;}.cls-3{fill:#e6b35a;}.cls-4{fill:#424242;}.cls-5{fill:#51a7f9;}.cls-6{fill:#a8d6ff;}.cls-7{fill:#0365c0;}.cls-8{fill:#164f86;}.cls-9{fill:#002452;}.cls-10{fill:#000643;}</style><clipPath
   id="clip3"><path
     id="path45"
     d="M 0,0 V 421 H 617 V 0 Z"
     inkscape:connector-curvature="0" /></clipPath><clipPath
   id="clip8"><path
     id="path100"
     d="M 0,0 V 421 H 617 V 0 Z"
     inkscape:connector-curvature="0" /></clipPath><style
   id="style4725">.cls-1{fill:#f2f2f2;}.cls-2{fill:#fff;}.cls-3{fill:#e6b35a;}.cls-4{fill:#424242;}.cls-5{fill:#51a7f9;}.cls-6{fill:#a8d6ff;}.cls-7{fill:#0365c0;}.cls-8{fill:#164f86;}.cls-9{fill:#002452;}.cls-10{fill:#000643;}</style><marker
   inkscape:stockid="TriangleOutL"
   orient="auto"
   refY="0"
   refX="0"
   id="marker5675-6"
   style="overflow:visible"
   inkscape:isstock="true"><path
     inkscape:connector-curvature="0"
     id="path5673-2"
     d="M 5.77,0 -2.88,5 V -5 Z"
     style="fill:#000000;fill-opacity:1;fill-rule:evenodd;stroke:#000000;stroke-width:1.00000003pt;stroke-opacity:1"
     transform="scale(0.8)" /></marker><marker
   inkscape:stockid="TriangleOutL"
   orient="auto"
   refY="0"
   refX="0"
   id="marker5607-9"
   style="overflow:visible"
   inkscape:isstock="true"><path
     inkscape:connector-curvature="0"
     id="path5605-1"
     d="M 5.77,0 -2.88,5 V -5 Z"
     style="fill:#000000;fill-opacity:1;fill-rule:evenodd;stroke:#000000;stroke-width:1.00000003pt;stroke-opacity:1"
     transform="scale(0.8)" /></marker><marker
   inkscape:stockid="TriangleOutL"
   orient="auto"
   refY="0"
   refX="0"
   id="marker4665-2"
   style="overflow:visible"
   inkscape:isstock="true"><path
     inkscape:connector-curvature="0"
     id="path4663-7"
     d="M 5.77,0 -2.88,5 V -5 Z"
     style="fill:#ffffff;fill-opacity:1;fill-rule:evenodd;stroke:#ffffff;stroke-width:1.00000003pt;stroke-opacity:1"
     transform="scale(0.8)" /></marker><marker
   inkscape:stockid="TriangleOutL"
   orient="auto"
   refY="0"
   refX="0"
   id="marker1839-0"
   style="overflow:visible"
   inkscape:isstock="true"><path
     inkscape:connector-curvature="0"
     id="path1837-9"
     d="M 5.77,0 -2.88,5 V -5 Z"
     style="fill:#ffffff;fill-opacity:1;fill-rule:evenodd;stroke:#ffffff;stroke-width:1.00000003pt;stroke-opacity:1"
     transform="scale(0.8)" /></marker><style
   id="style304-5">.cls-1{fill:#f2f2f2;}.cls-2{fill:#fff;}.cls-3{fill:#e6b35a;}.cls-4{fill:#424242;}.cls-5{fill:#51a7f9;}.cls-6{fill:#a8d6ff;}.cls-7{fill:#0365c0;}.cls-8{fill:#164f86;}.cls-9{fill:#002452;}.cls-10{fill:#000643;}</style><style
   id="style2069-3">.cls-1{fill:#f2f2f2;}.cls-2{fill:#fff;}.cls-3{fill:#e6b35a;}.cls-4{fill:#424242;}.cls-5{fill:#51a7f9;}.cls-6{fill:#a8d6ff;}.cls-7{fill:#0365c0;}.cls-8{fill:#164f86;}.cls-9{fill:#002452;}.cls-10{fill:#000643;}</style><style
   id="style2501-5">.cls-1{fill:#f2f2f2;}.cls-2{fill:#fff;}.cls-3{fill:#e6b35a;}.cls-4{fill:#424242;}.cls-5{fill:#51a7f9;}.cls-6{fill:#a8d6ff;}.cls-7{fill:#0365c0;}.cls-8{fill:#164f86;}.cls-9{fill:#002452;}.cls-10{fill:#000643;}</style><marker
   inkscape:isstock="true"
   style="overflow:visible"
   id="marker5675-62"
   refX="0"
   refY="0"
   orient="auto"
   inkscape:stockid="TriangleOutL"><path
     transform="scale(0.8)"
     style="fill:#000000;fill-opacity:1;fill-rule:evenodd;stroke:#000000;stroke-width:1.00000003pt;stroke-opacity:1"
     d="M 5.77,0 -2.88,5 V -5 Z"
     id="path5673-9"
     inkscape:connector-curvature="0" /></marker><marker
   inkscape:isstock="true"
   style="overflow:visible"
   id="marker5607-1"
   refX="0"
   refY="0"
   orient="auto"
   inkscape:stockid="TriangleOutL"><path
     transform="scale(0.8)"
     style="fill:#000000;fill-opacity:1;fill-rule:evenodd;stroke:#000000;stroke-width:1.00000003pt;stroke-opacity:1"
     d="M 5.77,0 -2.88,5 V -5 Z"
     id="path5605-2"
     inkscape:connector-curvature="0" /></marker><marker
   inkscape:isstock="true"
   style="overflow:visible"
   id="marker4665-7"
   refX="0"
   refY="0"
   orient="auto"
   inkscape:stockid="TriangleOutL"><path
     transform="scale(0.8)"
     style="fill:#ffffff;fill-opacity:1;fill-rule:evenodd;stroke:#ffffff;stroke-width:1.00000003pt;stroke-opacity:1"
     d="M 5.77,0 -2.88,5 V -5 Z"
     id="path4663-0"
     inkscape:connector-curvature="0" /></marker><marker
   inkscape:isstock="true"
   style="overflow:visible"
   id="marker1839-9"
   refX="0"
   refY="0"
   orient="auto"
   inkscape:stockid="TriangleOutL"><path
     transform="scale(0.8)"
     style="fill:#ffffff;fill-opacity:1;fill-rule:evenodd;stroke:#ffffff;stroke-width:1.00000003pt;stroke-opacity:1"
     d="M 5.77,0 -2.88,5 V -5 Z"
     id="path1837-3"
     inkscape:connector-curvature="0" /></marker><style
   id="style3292-6">.cls-1{fill:#f2f2f2;}.cls-2{fill:#fff;}.cls-3{fill:#e6b35a;}.cls-4{fill:#424242;}.cls-5{fill:#51a7f9;}.cls-6{fill:#a8d6ff;}.cls-7{fill:#0365c0;}.cls-8{fill:#164f86;}.cls-9{fill:#002452;}.cls-10{fill:#000643;}</style><clipPath
   id="clip3-0"><path
     inkscape:connector-curvature="0"
     d="M 0,0 V 421 H 617 V 0 Z"
     id="path45-6" /></clipPath><clipPath
   id="clip8-2"><path
     inkscape:connector-curvature="0"
     d="M 0,0 V 421 H 617 V 0 Z"
     id="path100-6" /></clipPath><style
   id="style4725-1">.cls-1{fill:#f2f2f2;}.cls-2{fill:#fff;}.cls-3{fill:#e6b35a;}.cls-4{fill:#424242;}.cls-5{fill:#51a7f9;}.cls-6{fill:#a8d6ff;}.cls-7{fill:#0365c0;}.cls-8{fill:#164f86;}.cls-9{fill:#002452;}.cls-10{fill:#000643;}</style><marker
   inkscape:isstock="true"
   style="overflow:visible"
   id="marker5675-6-8"
   refX="0"
   refY="0"
   orient="auto"
   inkscape:stockid="TriangleOutL"><path
     transform="scale(0.8)"
     style="fill:#000000;fill-opacity:1;fill-rule:evenodd;stroke:#000000;stroke-width:1.00000003pt;stroke-opacity:1"
     d="M 5.77,0 -2.88,5 V -5 Z"
     id="path5673-2-7"
     inkscape:connector-curvature="0" /></marker><marker
   inkscape:isstock="true"
   style="overflow:visible"
   id="marker5607-9-9"
   refX="0"
   refY="0"
   orient="auto"
   inkscape:stockid="TriangleOutL"><path
     transform="scale(0.8)"
     style="fill:#000000;fill-opacity:1;fill-rule:evenodd;stroke:#000000;stroke-width:1.00000003pt;stroke-opacity:1"
     d="M 5.77,0 -2.88,5 V -5 Z"
     id="path5605-1-2"
     inkscape:connector-curvature="0" /></marker><marker
   inkscape:isstock="true"
   style="overflow:visible"
   id="marker4665-2-0"
   refX="0"
   refY="0"
   orient="auto"
   inkscape:stockid="TriangleOutL"><path
     transform="scale(0.8)"
     style="fill:#ffffff;fill-opacity:1;fill-rule:evenodd;stroke:#ffffff;stroke-width:1.00000003pt;stroke-opacity:1"
     d="M 5.77,0 -2.88,5 V -5 Z"
     id="path4663-7-2"
     inkscape:connector-curvature="0" /></marker><marker
   inkscape:isstock="true"
   style="overflow:visible"
   id="marker1839-0-3"
   refX="0"
   refY="0"
   orient="auto"
   inkscape:stockid="TriangleOutL"><path
     transform="scale(0.8)"
     style="fill:#ffffff;fill-opacity:1;fill-rule:evenodd;stroke:#ffffff;stroke-width:1.00000003pt;stroke-opacity:1"
     d="M 5.77,0 -2.88,5 V -5 Z"
     id="path1837-9-7"
     inkscape:connector-curvature="0" /></marker></defs><sodipodi:namedview
   pagecolor="#ffffff"
   bordercolor="#666666"
   borderopacity="1"
   objecttolerance="10"
   gridtolerance="10"
   guidetolerance="10"
   inkscape:pageopacity="0"
   inkscape:pageshadow="2"
   inkscape:window-width="1366"
   inkscape:window-height="705"
   id="namedview109"
   showgrid="false"
   showguides="true"
   inkscape:guide-bbox="true"
   fit-margin-top="0"
   fit-margin-left="0"
   fit-margin-right="0"
   fit-margin-bottom="0"
   inkscape:zoom="0.25000001"
   inkscape:cx="1326.4916"
   inkscape:cy="802.45202"
   inkscape:window-x="-8"
   inkscape:window-y="-8"
   inkscape:window-maximized="1"
   inkscape:current-layer="text63"><sodipodi:guide
     position="1029.5475,478.71127"
     orientation="0,1"
     id="guide365"
     inkscape:locked="false" /></sodipodi:namedview>
<style
   type="text/css"
   id="style2">
	.st0{fill:#80CFD3;stroke:#80CFD3;stroke-width:0.25;stroke-linejoin:round;stroke-miterlimit:1;}
	.st1{fill:#8BD3DA;stroke:#8BD3DA;stroke-width:0.25;stroke-linejoin:round;stroke-miterlimit:1;}
	.st2{fill:#67BAB1;stroke:#67BAB1;stroke-width:0.25;stroke-linejoin:round;stroke-miterlimit:1;}
	.st3{fill:#A6DCE7;stroke:#A6DCE7;stroke-width:0.25;stroke-linejoin:round;stroke-miterlimit:1;}
	.st4{fill:#8AD3DD;stroke:#8AD3DD;stroke-width:0.25;stroke-linejoin:round;stroke-miterlimit:1;}
	.st5{fill:#BBE4ED;stroke:#BBE4ED;stroke-width:0.25;stroke-linejoin:round;stroke-miterlimit:1;}
	.st6{fill:#E4F3F7;stroke:#E4F3F7;stroke-width:0.25;stroke-linejoin:round;stroke-miterlimit:1;}
	.st7{fill:#7CCCC8;stroke:#7CCCC8;stroke-width:0.25;stroke-linejoin:round;stroke-miterlimit:1;}
	.st8{fill:#74C3C1;stroke:#74C3C1;stroke-width:0.25;stroke-linejoin:round;stroke-miterlimit:1;}
	.st9{fill:#88D2DD;stroke:#88D2DD;stroke-width:0.25;stroke-linejoin:round;stroke-miterlimit:1;}
	.st10{fill:#8AD3E4;stroke:#8AD3E4;stroke-width:0.25;stroke-linejoin:round;stroke-miterlimit:1;}
	.st11{fill:#64B7AA;stroke:#64B7AA;stroke-width:0.25;stroke-linejoin:round;stroke-miterlimit:1;}
	.st12{fill:#9FDAE4;stroke:#9FDAE4;stroke-width:0.25;stroke-linejoin:round;stroke-miterlimit:1;}
	.st13{fill:#A8DEED;stroke:#A8DEED;stroke-width:0.25;stroke-linejoin:round;stroke-miterlimit:1;}
	.st14{fill:#B1E1F1;stroke:#B1E1F1;stroke-width:0.25;stroke-linejoin:round;stroke-miterlimit:1;}
	.st15{fill:#A0DCF4;stroke:#A0DCF4;stroke-width:0.25;stroke-linejoin:round;stroke-miterlimit:1;}
	.st16{fill:#9CD9E7;stroke:#9CD9E7;stroke-width:0.25;stroke-linejoin:round;stroke-miterlimit:1;}
	.st17{fill:#71C1BC;stroke:#71C1BC;stroke-width:0.25;stroke-linejoin:round;stroke-miterlimit:1;}
	.st18{fill:#9CD8E0;stroke:#9CD8E0;stroke-width:0.25;stroke-linejoin:round;stroke-miterlimit:1;}
	.st19{fill:#B2E1ED;stroke:#B2E1ED;stroke-width:0.25;stroke-linejoin:round;stroke-miterlimit:1;}
	.st20{fill:#7ACCCF;stroke:#7ACCCF;stroke-width:0.25;stroke-linejoin:round;stroke-miterlimit:1;}
	.st21{fill:#D4EDF3;stroke:#D4EDF3;stroke-width:0.25;stroke-linejoin:round;stroke-miterlimit:1;}
	.st22{fill:#7ACCC9;stroke:#7ACCC9;stroke-width:0.25;stroke-linejoin:round;stroke-miterlimit:1;}
	.st23{fill:#8DD3D8;stroke:#8DD3D8;stroke-width:0.25;stroke-linejoin:round;stroke-miterlimit:1;}
	.st24{fill:#6EBEBA;stroke:#6EBEBA;stroke-width:0.25;stroke-linejoin:round;stroke-miterlimit:1;}
	.st25{fill:#80CED0;stroke:#80CED0;stroke-width:0.25;stroke-linejoin:round;stroke-miterlimit:1;}
	.st26{fill:#8CD4E1;stroke:#8CD4E1;stroke-width:0.25;stroke-linejoin:round;stroke-miterlimit:1;}
	.st27{fill:#CDEBF1;stroke:#CDEBF1;stroke-width:0.25;stroke-linejoin:round;stroke-miterlimit:1;}
	.st28{fill:#ADE0F0;stroke:#ADE0F0;stroke-width:0.25;stroke-linejoin:round;stroke-miterlimit:1;}
	.st29{fill:#B9E3EC;stroke:#B9E3EC;stroke-width:0.25;stroke-linejoin:round;stroke-miterlimit:1;}
	.st30{fill:#8DD4E0;stroke:#8DD4E0;stroke-width:0.25;stroke-linejoin:round;stroke-miterlimit:1;}
	.st31{fill:#69BAB3;stroke:#69BAB3;stroke-width:0.25;stroke-linejoin:round;stroke-miterlimit:1;}
	.st32{fill:#CCEAF1;stroke:#CCEAF1;stroke-width:0.25;stroke-linejoin:round;stroke-miterlimit:1;}
	.st33{fill:#9BD9E6;stroke:#9BD9E6;stroke-width:0.25;stroke-linejoin:round;stroke-miterlimit:1;}
	.st34{fill:#A6DDF0;stroke:#A6DDF0;stroke-width:0.25;stroke-linejoin:round;stroke-miterlimit:1;}
	.st35{fill:#A3DDF8;stroke:#A3DDF8;stroke-width:0.25;stroke-linejoin:round;stroke-miterlimit:1;}
	.st36{fill:#79CAC7;stroke:#79CAC7;stroke-width:0.25;stroke-linejoin:round;stroke-miterlimit:1;}
	.st37{fill:#1A1A1A;}
</style>


<style
   id="style755"
   type="text/css">
	.st0{fill:#80CFD3;stroke:#80CFD3;stroke-width:0.25;stroke-linejoin:round;stroke-miterlimit:1;}
	.st1{fill:#8BD3DA;stroke:#8BD3DA;stroke-width:0.25;stroke-linejoin:round;stroke-miterlimit:1;}
	.st2{fill:#67BAB1;stroke:#67BAB1;stroke-width:0.25;stroke-linejoin:round;stroke-miterlimit:1;}
	.st3{fill:#A6DCE7;stroke:#A6DCE7;stroke-width:0.25;stroke-linejoin:round;stroke-miterlimit:1;}
	.st4{fill:#8AD3DD;stroke:#8AD3DD;stroke-width:0.25;stroke-linejoin:round;stroke-miterlimit:1;}
	.st5{fill:#BBE4ED;stroke:#BBE4ED;stroke-width:0.25;stroke-linejoin:round;stroke-miterlimit:1;}
	.st6{fill:#E4F3F7;stroke:#E4F3F7;stroke-width:0.25;stroke-linejoin:round;stroke-miterlimit:1;}
	.st7{fill:#7CCCC8;stroke:#7CCCC8;stroke-width:0.25;stroke-linejoin:round;stroke-miterlimit:1;}
	.st8{fill:#74C3C1;stroke:#74C3C1;stroke-width:0.25;stroke-linejoin:round;stroke-miterlimit:1;}
	.st9{fill:#88D2DD;stroke:#88D2DD;stroke-width:0.25;stroke-linejoin:round;stroke-miterlimit:1;}
	.st10{fill:#8AD3E4;stroke:#8AD3E4;stroke-width:0.25;stroke-linejoin:round;stroke-miterlimit:1;}
	.st11{fill:#64B7AA;stroke:#64B7AA;stroke-width:0.25;stroke-linejoin:round;stroke-miterlimit:1;}
	.st12{fill:#9FDAE4;stroke:#9FDAE4;stroke-width:0.25;stroke-linejoin:round;stroke-miterlimit:1;}
	.st13{fill:#A8DEED;stroke:#A8DEED;stroke-width:0.25;stroke-linejoin:round;stroke-miterlimit:1;}
	.st14{fill:#B1E1F1;stroke:#B1E1F1;stroke-width:0.25;stroke-linejoin:round;stroke-miterlimit:1;}
	.st15{fill:#A0DCF4;stroke:#A0DCF4;stroke-width:0.25;stroke-linejoin:round;stroke-miterlimit:1;}
	.st16{fill:#9CD9E7;stroke:#9CD9E7;stroke-width:0.25;stroke-linejoin:round;stroke-miterlimit:1;}
	.st17{fill:#71C1BC;stroke:#71C1BC;stroke-width:0.25;stroke-linejoin:round;stroke-miterlimit:1;}
	.st18{fill:#9CD8E0;stroke:#9CD8E0;stroke-width:0.25;stroke-linejoin:round;stroke-miterlimit:1;}
	.st19{fill:#B2E1ED;stroke:#B2E1ED;stroke-width:0.25;stroke-linejoin:round;stroke-miterlimit:1;}
	.st20{fill:#7ACCCF;stroke:#7ACCCF;stroke-width:0.25;stroke-linejoin:round;stroke-miterlimit:1;}
	.st21{fill:#D4EDF3;stroke:#D4EDF3;stroke-width:0.25;stroke-linejoin:round;stroke-miterlimit:1;}
	.st22{fill:#7ACCC9;stroke:#7ACCC9;stroke-width:0.25;stroke-linejoin:round;stroke-miterlimit:1;}
	.st23{fill:#8DD3D8;stroke:#8DD3D8;stroke-width:0.25;stroke-linejoin:round;stroke-miterlimit:1;}
	.st24{fill:#6EBEBA;stroke:#6EBEBA;stroke-width:0.25;stroke-linejoin:round;stroke-miterlimit:1;}
	.st25{fill:#80CED0;stroke:#80CED0;stroke-width:0.25;stroke-linejoin:round;stroke-miterlimit:1;}
	.st26{fill:#8CD4E1;stroke:#8CD4E1;stroke-width:0.25;stroke-linejoin:round;stroke-miterlimit:1;}
	.st27{fill:#CDEBF1;stroke:#CDEBF1;stroke-width:0.25;stroke-linejoin:round;stroke-miterlimit:1;}
	.st28{fill:#ADE0F0;stroke:#ADE0F0;stroke-width:0.25;stroke-linejoin:round;stroke-miterlimit:1;}
	.st29{fill:#B9E3EC;stroke:#B9E3EC;stroke-width:0.25;stroke-linejoin:round;stroke-miterlimit:1;}
	.st30{fill:#8DD4E0;stroke:#8DD4E0;stroke-width:0.25;stroke-linejoin:round;stroke-miterlimit:1;}
	.st31{fill:#69BAB3;stroke:#69BAB3;stroke-width:0.25;stroke-linejoin:round;stroke-miterlimit:1;}
	.st32{fill:#CCEAF1;stroke:#CCEAF1;stroke-width:0.25;stroke-linejoin:round;stroke-miterlimit:1;}
	.st33{fill:#9BD9E6;stroke:#9BD9E6;stroke-width:0.25;stroke-linejoin:round;stroke-miterlimit:1;}
	.st34{fill:#A6DDF0;stroke:#A6DDF0;stroke-width:0.25;stroke-linejoin:round;stroke-miterlimit:1;}
	.st35{fill:#A3DDF8;stroke:#A3DDF8;stroke-width:0.25;stroke-linejoin:round;stroke-miterlimit:1;}
	.st36{fill:#79CAC7;stroke:#79CAC7;stroke-width:0.25;stroke-linejoin:round;stroke-miterlimit:1;}
	.st37{fill:#1A1A1A;}
</style><g
   id="g77"
   transform="matrix(2.9493677,0,0,2.9493677,-224.66896,239.93198)"
   style="fill:#ffffff"><g
     transform="matrix(1.4730452,0,0,1.4730452,-641.28728,-376.02114)"
     id="text5513"
     style="font-style:normal;font-weight:normal;font-size:84.27565002px;line-height:1.25;font-family:sans-serif;letter-spacing:0px;word-spacing:0px;fill:#ffffff;fill-opacity:1;stroke:none;stroke-width:2.10689116"
     aria-label="opentradestatistics"><g
   aria-label="opentradestatistics"
   style="font-style:normal;font-weight:normal;font-size:85.33333588px;line-height:1.25;font-family:sans-serif;letter-spacing:0px;word-spacing:0px;fill:#ffffff;fill-opacity:1;stroke:none"
   id="text63"><path
     d="m 818.32267,311.99875 q 0,11.54167 -6.75,18.20833 -6.70833,6.625 -18.875,6.625 -12.16666,0 -18.91666,-6.625 -6.70834,-6.66666 -6.70834,-18.20833 0,-11.625 6.75,-18.25 6.79167,-6.625 18.875,-6.625 12.25,0 18.91667,6.66666 6.70833,6.66667 6.70833,18.20834 z m -18.45833,11.375 q 1.45833,-1.79167 2.16667,-4.29167 0.75,-2.54167 0.75,-7 0,-4.125 -0.75,-6.91667 -0.75,-2.79166 -2.08334,-4.45833 -1.33333,-1.70833 -3.20833,-2.41667 -1.875,-0.70833 -4.04167,-0.70833 -2.16666,0 -3.875,0.58333 -1.66666,0.58334 -3.20833,2.33334 -1.375,1.625 -2.20833,4.45833 -0.79167,2.83333 -0.79167,7.125 0,3.83333 0.70833,6.66667 0.70834,2.79167 2.08334,4.5 1.33333,1.625 3.16666,2.375 1.875,0.75 4.25,0.75 2.04167,0 3.875,-0.66667 1.875,-0.70833 3.16667,-2.33333 z"
     style="fill:#ffffff"
     id="path71" /><path
     d="m 877.98934,311.33208 q 0,5.79167 -1.79166,10.54167 -1.75,4.75 -4.625,7.83333 -3,3.25 -6.79167,4.91667 -3.79167,1.66667 -8.125,1.66667 -4,0 -6.79167,-0.875 -2.79167,-0.83334 -5.70833,-2.375 v 19.5 h -15 v -63.95834 h 15 v 4.875 q 3.45833,-2.75 7.04166,-4.45833 3.625,-1.70834 8.33334,-1.70834 8.75,0 13.58333,6.41667 4.875,6.41667 4.875,17.625 z m -15.45833,0.29167 q 0,-6.83334 -2.33334,-9.91667 -2.33333,-3.08333 -7.375,-3.08333 -2.125,0 -4.375,0.66666 -2.25,0.625 -4.29166,1.83334 v 23.54167 q 1.5,0.58333 3.20833,0.75 1.70833,0.16666 3.375,0.16666 5.95833,0 8.875,-3.45833 2.91667,-3.5 2.91667,-10.5 z"
     style="fill:#ffffff"
     id="path73" /><path
     d="m 934.90601,314.74875 h -34.33333 q 0.33333,5.5 4.16666,8.41667 3.875,2.91666 11.375,2.91666 4.75,0 9.20834,-1.70833 4.45833,-1.70833 7.04166,-3.66667 h 1.66667 v 12.04167 q -5.08333,2.04167 -9.58333,2.95833 -4.5,0.91667 -9.95834,0.91667 -14.08333,0 -21.58333,-6.33333 -7.5,-6.33334 -7.5,-18.04167 0,-11.58334 7.08333,-18.33334 7.125,-6.79166 19.5,-6.79166 11.41667,0 17.16667,5.79166 5.75,5.75 5.75,16.58334 z m -14.91667,-8.79167 q -0.125,-4.70833 -2.33333,-7.08333 -2.20833,-2.375 -6.875,-2.375 -4.33333,0 -7.125,2.25 -2.79167,2.25 -3.125,7.20833 z"
     style="fill:#ffffff"
     id="path75" /><path
     d="m 992.48934,335.37375 h -15.08333 v -23.20834 q 0,-2.83333 -0.29167,-5.625 -0.29167,-2.83333 -1,-4.16666 -0.83333,-1.54167 -2.45833,-2.25 -1.58334,-0.70834 -4.45834,-0.70834 -2.04166,0 -4.16666,0.66667 -2.08334,0.66667 -4.54167,2.125 v 33.16667 h -15 v -46.79167 h 15 v 5.16667 q 4,-3.125 7.66667,-4.79167 3.70833,-1.66667 8.20833,-1.66667 7.58333,0 11.83333,4.41667 4.29167,4.41667 4.29167,13.20833 z"
     style="fill:#ffffff"
     id="path77" /><path
     d="m 1036.2394,334.95708 q -2.4167,0.625 -5.125,0.95834 -2.7084,0.375 -6.625,0.375 -8.7501,0 -13.0417,-3.54167 -4.25,-3.54167 -4.25,-12.125 v -21.875 h -6.1667 v -10.16667 h 6.1667 v -13.375 h 15 v 13.375 h 14.0417 v 10.16667 h -14.0417 v 16.58333 q 0,2.45833 0.042,4.29167 0.042,1.83333 0.6666,3.29167 0.5834,1.45833 2.0417,2.33333 1.5,0.83333 4.3333,0.83333 1.1667,0 3.0417,-0.5 1.9167,-0.5 2.6667,-0.91666 h 1.25 z"
     style="font-style:normal;font-variant:normal;font-weight:bold;font-stretch:normal;font-family:'Fira Sans';-inkscape-font-specification:'Fira Sans Bold';fill:#ffffff"
     id="path79" /><path
     d="m 1079.0727,302.87375 h -1.3333 q -0.9584,-0.33334 -3.0834,-0.5 -2.125,-0.16667 -3.5416,-0.16667 -3.2084,0 -5.6667,0.41667 -2.4583,0.41666 -5.2917,1.41666 v 31.33334 h -15 v -46.79167 h 15 v 6.875 q 4.9584,-4.25 8.625,-5.625 3.6667,-1.41667 6.75,-1.41667 0.7917,0 1.7917,0.0417 1,0.0417 1.75,0.125 z"
     style="font-style:normal;font-variant:normal;font-weight:bold;font-stretch:normal;font-family:'Fira Sans';-inkscape-font-specification:'Fira Sans Bold';fill:#ffffff"
     id="path81" /><path
     d="m 1115.9894,323.16542 v -9.75001 q -3.0417,0.25 -6.5834,0.70834 -3.5416,0.41666 -5.375,1 -2.25,0.70833 -3.4583,2.08333 -1.1667,1.33333 -1.1667,3.54167 0,1.45833 0.25,2.375 0.25,0.91667 1.25,1.75 0.9584,0.83333 2.2917,1.25 1.3333,0.375 4.1667,0.375 2.25,0 4.5416,-0.91667 2.3334,-0.91666 4.0834,-2.41666 z m 0,7.25 q -1.2084,0.91666 -3,2.20833 -1.7917,1.29167 -3.375,2.04167 -2.2084,1 -4.5834,1.45833 -2.375,0.5 -5.2083,0.5 -6.6667,0 -11.1667,-4.125 -4.5,-4.125 -4.5,-10.54167 0,-5.125 2.2917,-8.375 2.2917,-3.25 6.5,-5.125 4.1667,-1.875 10.3333,-2.66667 6.1667,-0.79166 12.7917,-1.16666 v -0.25 q 0,-3.875 -3.1667,-5.33334 -3.1666,-1.5 -9.3333,-1.5 -3.7083,0 -7.9167,1.33334 -4.2083,1.29166 -6.0416,2 h -1.375 v -11.29167 q 2.375,-0.625 7.7083,-1.45833 5.375,-0.875 10.75,-0.875 12.7917,0 18.4583,3.95833 5.7084,3.91667 5.7084,12.33333 v 31.83334 h -14.875 z"
     style="font-style:normal;font-variant:normal;font-weight:bold;font-stretch:normal;font-family:'Fira Sans';-inkscape-font-specification:'Fira Sans Bold';fill:#ffffff"
     id="path83" /><path
     d="m 1190.156,335.37375 h -15 v -4.875 q -3.875,3.16667 -7.25,4.66667 -3.375,1.5 -7.7916,1.5 -8.5417,0 -13.6667,-6.58334 -5.125,-6.58333 -5.125,-17.75 0,-5.95833 1.7083,-10.54167 1.75,-4.625 4.75,-7.91666 2.8334,-3.125 6.875,-4.83334 4.0417,-1.75 8.0834,-1.75 4.2083,0 6.875,0.91667 2.7083,0.875 5.5416,2.25 v -19.91667 h 15 z m -15,-12.91667 v -22.95833 q -1.5833,-0.66667 -3.3333,-0.95834 -1.75,-0.29166 -3.2083,-0.29166 -5.9167,0 -8.875,3.70833 -2.9584,3.66667 -2.9584,10.20833 0,6.875 2.375,10.00001 2.375,3.08333 7.625,3.08333 2.0417,0 4.3334,-0.75 2.2916,-0.79167 4.0416,-2.04167 z"
     style="font-style:normal;font-variant:normal;font-weight:bold;font-stretch:normal;font-family:'Fira Sans';-inkscape-font-specification:'Fira Sans Bold';fill:#ffffff"
     id="path85" /><path
     d="m 1250.406,314.74875 h -34.3333 q 0.3333,5.5 4.1667,8.41667 3.875,2.91666 11.375,2.91666 4.75,0 9.2083,-1.70833 4.4583,-1.70833 7.0417,-3.66667 h 1.6666 v 12.04167 q -5.0833,2.04167 -9.5833,2.95833 -4.5,0.91667 -9.9583,0.91667 -14.0834,0 -21.5834,-6.33333 -7.5,-6.33334 -7.5,-18.04167 0,-11.58334 7.0833,-18.33334 7.125,-6.79166 19.5001,-6.79166 11.4166,0 17.1666,5.79166 5.75,5.75 5.75,16.58334 z m -14.9166,-8.79167 q -0.125,-4.70833 -2.3334,-7.08333 -2.2083,-2.375 -6.875,-2.375 -4.3333,0 -7.125,2.25 -2.7917,2.25 -3.125,7.20833 z"
     style="font-style:normal;font-variant:normal;font-weight:bold;font-stretch:normal;font-family:'Fira Sans';-inkscape-font-specification:'Fira Sans Bold';fill:#ffffff"
     id="path87" /><path
     d="m 1301.656,320.54042 q 0,7.25 -6.5,11.70833 -6.5,4.41667 -17.7917,4.41667 -6.25,0 -11.3333,-1.16667 -5.0833,-1.16667 -8.1667,-2.58333 v -12.33334 h 1.375 q 1.125,0.79167 2.5834,1.75 1.5,0.91667 4.2083,2 2.3333,0.95834 5.2917,1.66667 2.9583,0.66667 6.3333,0.66667 4.4167,0 6.5417,-0.95834 2.125,-1 2.125,-2.91666 0,-1.70834 -1.25,-2.45834 -1.25,-0.79167 -4.75,-1.5 -1.6667,-0.375 -4.5417,-0.79167 -2.8333,-0.45833 -5.1667,-1.08333 -6.375,-1.66667 -9.4583,-5.16667 -3.0833,-3.54166 -3.0833,-8.79166 0,-6.75 6.375,-11.20834 6.4166,-4.5 17.5,-4.5 5.25,0 10.0416,1.08334 4.8334,1.04166 7.5417,2.25 v 11.83333 h -1.2917 q -3.3333,-2.29167 -7.625,-3.70833 -4.25,-1.45834 -8.625,-1.45834 -3.625,0 -6.125,1 -2.4583,1 -2.4583,2.83334 0,1.66666 1.125,2.54166 1.125,0.875 5.2917,1.75 2.2916,0.45834 4.9166,0.91667 2.6667,0.41667 5.3334,1.08333 5.9166,1.54167 8.75,4.875 2.8333,3.29167 2.8333,8.25001 z"
     style="font-style:normal;font-variant:normal;font-weight:bold;font-stretch:normal;font-family:'Fira Sans';-inkscape-font-specification:'Fira Sans Bold';fill:#ffffff"
     id="path89" /><path
     d="m 1341.5727,334.95708 q -2.4167,0.625 -5.125,0.95834 -2.7083,0.375 -6.625,0.375 -8.75,0 -13.0417,-3.54167 -4.25,-3.54167 -4.25,-12.125 v -21.875 h -6.1666 v -10.16667 h 6.1666 v -13.375 h 15 v 13.375 h 14.0417 v 10.16667 h -14.0417 v 16.58333 q 0,2.45833 0.042,4.29167 0.042,1.83333 0.6667,3.29167 0.5833,1.45833 2.0416,2.33333 1.5,0.83333 4.3334,0.83333 1.1666,0 3.0416,-0.5 1.9167,-0.5 2.6667,-0.91666 h 1.25 z"
     style="font-style:normal;font-variant:normal;font-weight:bold;font-stretch:normal;font-family:'Fira Sans';-inkscape-font-specification:'Fira Sans Bold';fill:#ffffff"
     id="path91" /><path
     d="m 1378.8227,323.16542 v -9.75001 q -3.0417,0.25 -6.5834,0.70834 -3.5416,0.41666 -5.375,1 -2.25,0.70833 -3.4583,2.08333 -1.1667,1.33333 -1.1667,3.54167 0,1.45833 0.25,2.375 0.25,0.91667 1.25,1.75 0.9584,0.83333 2.2917,1.25 1.3333,0.375 4.1667,0.375 2.25,0 4.5416,-0.91667 2.3334,-0.91666 4.0834,-2.41666 z m 0,7.25 q -1.2084,0.91666 -3,2.20833 -1.7917,1.29167 -3.375,2.04167 -2.2084,1 -4.5834,1.45833 -2.375,0.5 -5.2083,0.5 -6.6667,0 -11.1667,-4.125 -4.5,-4.125 -4.5,-10.54167 0,-5.125 2.2917,-8.375 2.2917,-3.25 6.5,-5.125 4.1667,-1.875 10.3333,-2.66667 6.1667,-0.79166 12.7917,-1.16666 v -0.25 q 0,-3.875 -3.1667,-5.33334 -3.1666,-1.5 -9.3333,-1.5 -3.7083,0 -7.9167,1.33334 -4.2083,1.29166 -6.0416,2 h -1.375 v -11.29167 q 2.375,-0.625 7.7083,-1.45833 5.375,-0.875 10.75,-0.875 12.7917,0 18.4583,3.95833 5.7084,3.91667 5.7084,12.33333 v 31.83334 h -14.875 z"
     style="font-style:normal;font-variant:normal;font-weight:bold;font-stretch:normal;font-family:'Fira Sans';-inkscape-font-specification:'Fira Sans Bold';fill:#ffffff"
     id="path93" /><path
     d="m 1437.406,334.95708 q -2.4167,0.625 -5.125,0.95834 -2.7083,0.375 -6.625,0.375 -8.75,0 -13.0417,-3.54167 -4.25,-3.54167 -4.25,-12.125 v -21.875 h -6.1666 v -10.16667 h 6.1666 v -13.375 h 15 v 13.375 h 14.0417 v 10.16667 h -14.0417 v 16.58333 q 0,2.45833 0.042,4.29167 0.042,1.83333 0.6667,3.29167 0.5833,1.45833 2.0416,2.33333 1.5,0.83333 4.3334,0.83333 1.1666,0 3.0416,-0.5 1.9167,-0.5 2.6667,-0.91666 h 1.25 z"
     style="font-style:normal;font-variant:normal;font-weight:bold;font-stretch:normal;font-family:'Fira Sans';-inkscape-font-specification:'Fira Sans Bold';fill:#ffffff"
     id="path95" /><path
     d="m 1461.3227,335.37375 h -15 v -46.79167 h 15 z m 0.4167,-53.45834 h -15.8334 v -11.375 h 15.8334 z"
     style="font-style:normal;font-variant:normal;font-weight:bold;font-stretch:normal;font-family:'Fira Sans';-inkscape-font-specification:'Fira Sans Bold';fill:#ffffff"
     id="path97" /><path
     d="m 1516.156,320.54042 q 0,7.25 -6.5,11.70833 -6.5,4.41667 -17.7917,4.41667 -6.25,0 -11.3333,-1.16667 -5.0833,-1.16667 -8.1667,-2.58333 v -12.33334 h 1.375 q 1.125,0.79167 2.5834,1.75 1.5,0.91667 4.2083,2 2.3333,0.95834 5.2917,1.66667 2.9583,0.66667 6.3333,0.66667 4.4167,0 6.5417,-0.95834 2.125,-1 2.125,-2.91666 0,-1.70834 -1.25,-2.45834 -1.25,-0.79167 -4.75,-1.5 -1.6667,-0.375 -4.5417,-0.79167 -2.8333,-0.45833 -5.1667,-1.08333 -6.375,-1.66667 -9.4583,-5.16667 -3.0833,-3.54166 -3.0833,-8.79166 0,-6.75 6.375,-11.20834 6.4166,-4.5 17.5,-4.5 5.25,0 10.0416,1.08334 4.8334,1.04166 7.5417,2.25 v 11.83333 h -1.2917 q -3.3333,-2.29167 -7.625,-3.70833 -4.25,-1.45834 -8.625,-1.45834 -3.625,0 -6.125,1 -2.4583,1 -2.4583,2.83334 0,1.66666 1.125,2.54166 1.125,0.875 5.2917,1.75 2.2916,0.45834 4.9166,0.91667 2.6667,0.41667 5.3334,1.08333 5.9166,1.54167 8.75,4.875 2.8333,3.29167 2.8333,8.25001 z"
     style="font-style:normal;font-variant:normal;font-weight:bold;font-stretch:normal;font-family:'Fira Sans';-inkscape-font-specification:'Fira Sans Bold';fill:#ffffff"
     id="path99" /><path
     d="m 1556.0727,334.95708 q -2.4167,0.625 -5.125,0.95834 -2.7083,0.375 -6.625,0.375 -8.75,0 -13.0417,-3.54167 -4.25,-3.54167 -4.25,-12.125 v -21.875 h -6.1666 v -10.16667 h 6.1666 v -13.375 h 15 v 13.375 h 14.0417 v 10.16667 h -14.0417 v 16.58333 q 0,2.45833 0.042,4.29167 0.042,1.83333 0.6667,3.29167 0.5833,1.45833 2.0416,2.33333 1.5,0.83333 4.3334,0.83333 1.1666,0 3.0416,-0.5 1.9167,-0.5 2.6667,-0.91666 h 1.25 z"
     style="font-style:normal;font-variant:normal;font-weight:bold;font-stretch:normal;font-family:'Fira Sans';-inkscape-font-specification:'Fira Sans Bold';fill:#ffffff"
     id="path101" /><path
     d="m 1579.9893,335.37375 h -15 v -46.79167 h 15 z m 0.4167,-53.45834 h -15.8333 v -11.375 h 15.8333 z"
     style="font-style:normal;font-variant:normal;font-weight:bold;font-stretch:normal;font-family:'Fira Sans';-inkscape-font-specification:'Fira Sans Bold';fill:#ffffff"
     id="path103" /><path
     d="m 1618.531,336.62375 q -6.125,0 -11.2083,-1.45833 -5.0417,-1.45834 -8.7917,-4.5 -3.7083,-3.04167 -5.75,-7.66667 -2.0416,-4.625 -2.0416,-10.83334 0,-6.54166 2.1666,-11.29166 2.2084,-4.75 6.125,-7.875 3.7917,-2.95834 8.75,-4.33334 4.9584,-1.375 10.2917,-1.375 4.7917,0 8.8333,1.04167 4.0417,1.04167 7.5417,2.70833 v 12.79167 h -2.125 q -0.875,-0.75 -2.125,-1.75 -1.2083,-1 -3,-1.95833 -1.7083,-0.91667 -3.75,-1.5 -2.0417,-0.625 -4.75,-0.625 -6,0 -9.25,3.83333 -3.2083,3.79167 -3.2083,10.33333 0,6.75 3.2916,10.25001 3.3334,3.5 9.4167,3.5 2.8333,0 5.0833,-0.625 2.2917,-0.66667 3.7917,-1.54167 1.4167,-0.83333 2.5,-1.75 1.0833,-0.91667 2,-1.79167 h 2.125 v 12.79167 q -3.5417,1.66667 -7.4167,2.625 -3.8333,1 -8.5,1 z"
     style="font-style:normal;font-variant:normal;font-weight:bold;font-stretch:normal;font-family:'Fira Sans';-inkscape-font-specification:'Fira Sans Bold';fill:#ffffff"
     id="path105" /><path
     d="m 1684.9894,320.54042 q 0,7.25 -6.5,11.70833 -6.5,4.41667 -17.7917,4.41667 -6.25,0 -11.3333,-1.16667 -5.0834,-1.16667 -8.1667,-2.58333 v -12.33334 h 1.375 q 1.125,0.79167 2.5833,1.75 1.5,0.91667 4.2084,2 2.3333,0.95834 5.2916,1.66667 2.9584,0.66667 6.3334,0.66667 4.4166,0 6.5416,-0.95834 2.125,-1 2.125,-2.91666 0,-1.70834 -1.25,-2.45834 -1.25,-0.79167 -4.75,-1.5 -1.6666,-0.375 -4.5416,-0.79167 -2.8334,-0.45833 -5.1667,-1.08333 -6.375,-1.66667 -9.4583,-5.16667 -3.0834,-3.54166 -3.0834,-8.79166 0,-6.75 6.375,-11.20834 6.4167,-4.5 17.5,-4.5 5.25,0 10.0417,1.08334 4.8333,1.04166 7.5417,2.25 v 11.83333 h -1.2917 q -3.3333,-2.29167 -7.625,-3.70833 -4.25,-1.45834 -8.625,-1.45834 -3.625,0 -6.125,1 -2.4583,1 -2.4583,2.83334 0,1.66666 1.125,2.54166 1.125,0.875 5.2916,1.75 2.2917,0.45834 4.9167,0.91667 2.6667,0.41667 5.3333,1.08333 5.9167,1.54167 8.75,4.875 2.8334,3.29167 2.8334,8.25001 z"
     style="font-style:normal;font-variant:normal;font-weight:bold;font-stretch:normal;font-family:'Fira Sans';-inkscape-font-specification:'Fira Sans Bold';fill:#ffffff"
     id="path107" /></g>



</g></g>
<style
   id="style2-9"
   type="text/css">
	.st0{fill:#80CFD3;stroke:#80CFD3;stroke-width:0.25;stroke-linejoin:round;stroke-miterlimit:1;}
	.st1{fill:#8BD3DA;stroke:#8BD3DA;stroke-width:0.25;stroke-linejoin:round;stroke-miterlimit:1;}
	.st2{fill:#67BAB1;stroke:#67BAB1;stroke-width:0.25;stroke-linejoin:round;stroke-miterlimit:1;}
	.st3{fill:#A6DCE7;stroke:#A6DCE7;stroke-width:0.25;stroke-linejoin:round;stroke-miterlimit:1;}
	.st4{fill:#8AD3DD;stroke:#8AD3DD;stroke-width:0.25;stroke-linejoin:round;stroke-miterlimit:1;}
	.st5{fill:#BBE4ED;stroke:#BBE4ED;stroke-width:0.25;stroke-linejoin:round;stroke-miterlimit:1;}
	.st6{fill:#E4F3F7;stroke:#E4F3F7;stroke-width:0.25;stroke-linejoin:round;stroke-miterlimit:1;}
	.st7{fill:#7CCCC8;stroke:#7CCCC8;stroke-width:0.25;stroke-linejoin:round;stroke-miterlimit:1;}
	.st8{fill:#74C3C1;stroke:#74C3C1;stroke-width:0.25;stroke-linejoin:round;stroke-miterlimit:1;}
	.st9{fill:#88D2DD;stroke:#88D2DD;stroke-width:0.25;stroke-linejoin:round;stroke-miterlimit:1;}
	.st10{fill:#8AD3E4;stroke:#8AD3E4;stroke-width:0.25;stroke-linejoin:round;stroke-miterlimit:1;}
	.st11{fill:#64B7AA;stroke:#64B7AA;stroke-width:0.25;stroke-linejoin:round;stroke-miterlimit:1;}
	.st12{fill:#9FDAE4;stroke:#9FDAE4;stroke-width:0.25;stroke-linejoin:round;stroke-miterlimit:1;}
	.st13{fill:#A8DEED;stroke:#A8DEED;stroke-width:0.25;stroke-linejoin:round;stroke-miterlimit:1;}
	.st14{fill:#B1E1F1;stroke:#B1E1F1;stroke-width:0.25;stroke-linejoin:round;stroke-miterlimit:1;}
	.st15{fill:#A0DCF4;stroke:#A0DCF4;stroke-width:0.25;stroke-linejoin:round;stroke-miterlimit:1;}
	.st16{fill:#9CD9E7;stroke:#9CD9E7;stroke-width:0.25;stroke-linejoin:round;stroke-miterlimit:1;}
	.st17{fill:#71C1BC;stroke:#71C1BC;stroke-width:0.25;stroke-linejoin:round;stroke-miterlimit:1;}
	.st18{fill:#9CD8E0;stroke:#9CD8E0;stroke-width:0.25;stroke-linejoin:round;stroke-miterlimit:1;}
	.st19{fill:#B2E1ED;stroke:#B2E1ED;stroke-width:0.25;stroke-linejoin:round;stroke-miterlimit:1;}
	.st20{fill:#7ACCCF;stroke:#7ACCCF;stroke-width:0.25;stroke-linejoin:round;stroke-miterlimit:1;}
	.st21{fill:#D4EDF3;stroke:#D4EDF3;stroke-width:0.25;stroke-linejoin:round;stroke-miterlimit:1;}
	.st22{fill:#7ACCC9;stroke:#7ACCC9;stroke-width:0.25;stroke-linejoin:round;stroke-miterlimit:1;}
	.st23{fill:#8DD3D8;stroke:#8DD3D8;stroke-width:0.25;stroke-linejoin:round;stroke-miterlimit:1;}
	.st24{fill:#6EBEBA;stroke:#6EBEBA;stroke-width:0.25;stroke-linejoin:round;stroke-miterlimit:1;}
	.st25{fill:#80CED0;stroke:#80CED0;stroke-width:0.25;stroke-linejoin:round;stroke-miterlimit:1;}
	.st26{fill:#8CD4E1;stroke:#8CD4E1;stroke-width:0.25;stroke-linejoin:round;stroke-miterlimit:1;}
	.st27{fill:#CDEBF1;stroke:#CDEBF1;stroke-width:0.25;stroke-linejoin:round;stroke-miterlimit:1;}
	.st28{fill:#ADE0F0;stroke:#ADE0F0;stroke-width:0.25;stroke-linejoin:round;stroke-miterlimit:1;}
	.st29{fill:#B9E3EC;stroke:#B9E3EC;stroke-width:0.25;stroke-linejoin:round;stroke-miterlimit:1;}
	.st30{fill:#8DD4E0;stroke:#8DD4E0;stroke-width:0.25;stroke-linejoin:round;stroke-miterlimit:1;}
	.st31{fill:#69BAB3;stroke:#69BAB3;stroke-width:0.25;stroke-linejoin:round;stroke-miterlimit:1;}
	.st32{fill:#CCEAF1;stroke:#CCEAF1;stroke-width:0.25;stroke-linejoin:round;stroke-miterlimit:1;}
	.st33{fill:#9BD9E6;stroke:#9BD9E6;stroke-width:0.25;stroke-linejoin:round;stroke-miterlimit:1;}
	.st34{fill:#A6DDF0;stroke:#A6DDF0;stroke-width:0.25;stroke-linejoin:round;stroke-miterlimit:1;}
	.st35{fill:#A3DDF8;stroke:#A3DDF8;stroke-width:0.25;stroke-linejoin:round;stroke-miterlimit:1;}
	.st36{fill:#79CAC7;stroke:#79CAC7;stroke-width:0.25;stroke-linejoin:round;stroke-miterlimit:1;}
	.st37{fill:#1A1A1A;}
</style><style
   type="text/css"
   id="style755-2">
	.st0{fill:#80CFD3;stroke:#80CFD3;stroke-width:0.25;stroke-linejoin:round;stroke-miterlimit:1;}
	.st1{fill:#8BD3DA;stroke:#8BD3DA;stroke-width:0.25;stroke-linejoin:round;stroke-miterlimit:1;}
	.st2{fill:#67BAB1;stroke:#67BAB1;stroke-width:0.25;stroke-linejoin:round;stroke-miterlimit:1;}
	.st3{fill:#A6DCE7;stroke:#A6DCE7;stroke-width:0.25;stroke-linejoin:round;stroke-miterlimit:1;}
	.st4{fill:#8AD3DD;stroke:#8AD3DD;stroke-width:0.25;stroke-linejoin:round;stroke-miterlimit:1;}
	.st5{fill:#BBE4ED;stroke:#BBE4ED;stroke-width:0.25;stroke-linejoin:round;stroke-miterlimit:1;}
	.st6{fill:#E4F3F7;stroke:#E4F3F7;stroke-width:0.25;stroke-linejoin:round;stroke-miterlimit:1;}
	.st7{fill:#7CCCC8;stroke:#7CCCC8;stroke-width:0.25;stroke-linejoin:round;stroke-miterlimit:1;}
	.st8{fill:#74C3C1;stroke:#74C3C1;stroke-width:0.25;stroke-linejoin:round;stroke-miterlimit:1;}
	.st9{fill:#88D2DD;stroke:#88D2DD;stroke-width:0.25;stroke-linejoin:round;stroke-miterlimit:1;}
	.st10{fill:#8AD3E4;stroke:#8AD3E4;stroke-width:0.25;stroke-linejoin:round;stroke-miterlimit:1;}
	.st11{fill:#64B7AA;stroke:#64B7AA;stroke-width:0.25;stroke-linejoin:round;stroke-miterlimit:1;}
	.st12{fill:#9FDAE4;stroke:#9FDAE4;stroke-width:0.25;stroke-linejoin:round;stroke-miterlimit:1;}
	.st13{fill:#A8DEED;stroke:#A8DEED;stroke-width:0.25;stroke-linejoin:round;stroke-miterlimit:1;}
	.st14{fill:#B1E1F1;stroke:#B1E1F1;stroke-width:0.25;stroke-linejoin:round;stroke-miterlimit:1;}
	.st15{fill:#A0DCF4;stroke:#A0DCF4;stroke-width:0.25;stroke-linejoin:round;stroke-miterlimit:1;}
	.st16{fill:#9CD9E7;stroke:#9CD9E7;stroke-width:0.25;stroke-linejoin:round;stroke-miterlimit:1;}
	.st17{fill:#71C1BC;stroke:#71C1BC;stroke-width:0.25;stroke-linejoin:round;stroke-miterlimit:1;}
	.st18{fill:#9CD8E0;stroke:#9CD8E0;stroke-width:0.25;stroke-linejoin:round;stroke-miterlimit:1;}
	.st19{fill:#B2E1ED;stroke:#B2E1ED;stroke-width:0.25;stroke-linejoin:round;stroke-miterlimit:1;}
	.st20{fill:#7ACCCF;stroke:#7ACCCF;stroke-width:0.25;stroke-linejoin:round;stroke-miterlimit:1;}
	.st21{fill:#D4EDF3;stroke:#D4EDF3;stroke-width:0.25;stroke-linejoin:round;stroke-miterlimit:1;}
	.st22{fill:#7ACCC9;stroke:#7ACCC9;stroke-width:0.25;stroke-linejoin:round;stroke-miterlimit:1;}
	.st23{fill:#8DD3D8;stroke:#8DD3D8;stroke-width:0.25;stroke-linejoin:round;stroke-miterlimit:1;}
	.st24{fill:#6EBEBA;stroke:#6EBEBA;stroke-width:0.25;stroke-linejoin:round;stroke-miterlimit:1;}
	.st25{fill:#80CED0;stroke:#80CED0;stroke-width:0.25;stroke-linejoin:round;stroke-miterlimit:1;}
	.st26{fill:#8CD4E1;stroke:#8CD4E1;stroke-width:0.25;stroke-linejoin:round;stroke-miterlimit:1;}
	.st27{fill:#CDEBF1;stroke:#CDEBF1;stroke-width:0.25;stroke-linejoin:round;stroke-miterlimit:1;}
	.st28{fill:#ADE0F0;stroke:#ADE0F0;stroke-width:0.25;stroke-linejoin:round;stroke-miterlimit:1;}
	.st29{fill:#B9E3EC;stroke:#B9E3EC;stroke-width:0.25;stroke-linejoin:round;stroke-miterlimit:1;}
	.st30{fill:#8DD4E0;stroke:#8DD4E0;stroke-width:0.25;stroke-linejoin:round;stroke-miterlimit:1;}
	.st31{fill:#69BAB3;stroke:#69BAB3;stroke-width:0.25;stroke-linejoin:round;stroke-miterlimit:1;}
	.st32{fill:#CCEAF1;stroke:#CCEAF1;stroke-width:0.25;stroke-linejoin:round;stroke-miterlimit:1;}
	.st33{fill:#9BD9E6;stroke:#9BD9E6;stroke-width:0.25;stroke-linejoin:round;stroke-miterlimit:1;}
	.st34{fill:#A6DDF0;stroke:#A6DDF0;stroke-width:0.25;stroke-linejoin:round;stroke-miterlimit:1;}
	.st35{fill:#A3DDF8;stroke:#A3DDF8;stroke-width:0.25;stroke-linejoin:round;stroke-miterlimit:1;}
	.st36{fill:#79CAC7;stroke:#79CAC7;stroke-width:0.25;stroke-linejoin:round;stroke-miterlimit:1;}
	.st37{fill:#1A1A1A;}
</style><g
   id="g363"
   transform="translate(-207.72066,-230.6173)"
   style="fill:#ffffff"><g
     style="fill:#ffffff;fill-opacity:1"
     inkscape:label="Layer 1"
     id="layer1"
     transform="matrix(73.121449,0,0,73.121449,2212.9559,-6080.7084)"><g
       transform="translate(-42.068749,-32.808333)"
       aria-label="Open Trade Statistics"
       style="font-style:normal;font-weight:normal;font-size:10.58333302px;line-height:125%;font-family:sans-serif;letter-spacing:0px;word-spacing:0px;fill:#ffffff;fill-opacity:1;stroke:none;stroke-width:0.26458332px;stroke-linecap:butt;stroke-linejoin:miter;stroke-opacity:1"
       id="text817"><path
         inkscape:connector-curvature="0"
         style="font-style:normal;font-variant:normal;font-weight:bold;font-stretch:normal;font-size:16.93333244px;font-family:Montserrat;-inkscape-font-specification:'Montserrat Bold';fill:#ffffff;fill-opacity:1;stroke:none;stroke-width:0.99999994px"
         d="m 32.007812,9.3066406 v 3.1601564 c -4.625522,0.0091 -8.807286,1.009651 -12.544921,3.005859 -3.711999,2.005342 -6.634243,4.778971 -8.767579,8.320313 -2.0906636,3.498671 -3.1367183,7.445199 -3.1367182,11.839843 0,4.394684 1.0460546,8.362993 3.1367182,11.904297 2.133336,3.498671 5.05558,6.250556 8.767579,8.25586 3.754665,2.005341 7.956755,3.007812 12.607421,3.007812 4.650668,0 8.832924,-1.002471 12.544922,-3.007812 3.711999,-2.005304 6.634244,-4.757189 8.767578,-8.25586 2.133332,-3.541304 3.201172,-7.509613 3.201172,-11.904297 0,-4.394644 -1.06784,-8.341172 -3.201172,-11.839843 -0.949069,-1.57546 -2.062706,-2.990257 -3.324218,-4.261719 l -8.751953,5.060547 c 1.172047,0.999388 2.147825,2.203738 2.923828,3.617187 1.237334,2.175988 1.857422,4.650526 1.857422,7.423828 0,2.773342 -0.620088,5.247841 -1.857422,7.423829 -1.194667,2.175987 -2.858852,3.883752 -4.992188,5.121093 -2.133331,1.194671 -4.522636,1.791016 -7.167969,1.791016 -2.645331,0 -5.034633,-0.596345 -7.167968,-1.791016 -2.133336,-1.237341 -3.817357,-2.945106 -5.054688,-5.121093 -1.194667,-2.175988 -1.792969,-4.650487 -1.792968,-7.423829 0,-2.773302 0.598301,-5.24784 1.792968,-7.423828 1.237331,-2.176025 2.921352,-3.861969 5.054688,-5.05664 2.116335,-1.227445 4.485264,-1.843743 7.105468,-1.853516 v 3.125 l 13.078126,-7.558594 z"
         transform="matrix(0.26458333,0,0,0.26458333,12.645519,116.65887)"
         id="path5880" /><path
         style="color:#000000;font-style:normal;font-variant:normal;font-weight:normal;font-stretch:normal;font-size:medium;line-height:125%;font-family:sans-serif;font-variant-ligatures:normal;font-variant-position:normal;font-variant-caps:normal;font-variant-numeric:normal;font-variant-alternates:normal;font-feature-settings:normal;text-indent:0;text-align:start;text-decoration:none;text-decoration-line:none;text-decoration-style:solid;text-decoration-color:#000000;letter-spacing:0px;word-spacing:0px;text-transform:none;writing-mode:lr-tb;direction:ltr;text-orientation:mixed;dominant-baseline:auto;baseline-shift:baseline;text-anchor:start;white-space:normal;shape-padding:0;clip-rule:nonzero;display:inline;overflow:visible;visibility:visible;opacity:1;isolation:auto;mix-blend-mode:normal;color-interpolation:sRGB;color-interpolation-filters:linearRGB;solid-color:#000000;solid-opacity:1;vector-effect:none;fill:#ffffff;fill-opacity:1;fill-rule:evenodd;stroke:none;stroke-width:0.5;stroke-linecap:butt;stroke-linejoin:miter;stroke-miterlimit:4;stroke-dasharray:none;stroke-dashoffset:0;stroke-opacity:1;color-rendering:auto;image-rendering:auto;shape-rendering:auto;text-rendering:auto;enable-background:accumulate"
         d="m 22.158203,120.87155 v 0.5 h 0.392578 v -0.5 z"
         id="path5888"
         inkscape:connector-curvature="0" /></g></g></g></svg>