<?xml version="1.0" encoding="UTF-8" standalone="no"?>
<!-- Generator: Adobe Illustrator 19.2.1, SVG Export Plug-In . SVG Version: 6.00 Build 0)  -->

<svg
   xmlns:dc="http://purl.org/dc/elements/1.1/"
   xmlns:cc="http://creativecommons.org/ns#"
   xmlns:rdf="http://www.w3.org/1999/02/22-rdf-syntax-ns#"
   xmlns:svg="http://www.w3.org/2000/svg"
   xmlns="http://www.w3.org/2000/svg"
   xmlns:sodipodi="http://sodipodi.sourceforge.net/DTD/sodipodi-0.dtd"
   xmlns:inkscape="http://www.inkscape.org/namespaces/inkscape"
   version="1.1"
   id="Layer_1"
   x="0px"
   y="0px"
   viewBox="0 0 769.95189 727.23999"
   xml:space="preserve"
   sodipodi:docname="logo-colour.svg"
   width="769.9519"
   height="727.23999"
   inkscape:version="0.92.3 (2405546, 2018-03-11)"><metadata
   id="metadata113"><rdf:RDF><cc:Work
       rdf:about=""><dc:format>image/svg+xml</dc:format><dc:type
         rdf:resource="http://purl.org/dc/dcmitype/StillImage" /><dc:title /></cc:Work></rdf:RDF></metadata><defs
   id="defs111"><style
   id="style304">.cls-1{fill:#f2f2f2;}.cls-2{fill:#fff;}.cls-3{fill:#e6b35a;}.cls-4{fill:#424242;}.cls-5{fill:#51a7f9;}.cls-6{fill:#a8d6ff;}.cls-7{fill:#0365c0;}.cls-8{fill:#164f86;}.cls-9{fill:#002452;}.cls-10{fill:#000643;}</style>
	
	

	
	
	
	
	
	
	
	
	
	
	
	
	
	
	
	
	
	
	
	
	
	
	
	
	
	
	
	
	
	
	
	
	
	
	
	
	
	
	
	

		
		
		
		
		
		
		
		
	<style
   id="style2069">.cls-1{fill:#f2f2f2;}.cls-2{fill:#fff;}.cls-3{fill:#e6b35a;}.cls-4{fill:#424242;}.cls-5{fill:#51a7f9;}.cls-6{fill:#a8d6ff;}.cls-7{fill:#0365c0;}.cls-8{fill:#164f86;}.cls-9{fill:#002452;}.cls-10{fill:#000643;}</style><style
   id="style2501">.cls-1{fill:#f2f2f2;}.cls-2{fill:#fff;}.cls-3{fill:#e6b35a;}.cls-4{fill:#424242;}.cls-5{fill:#51a7f9;}.cls-6{fill:#a8d6ff;}.cls-7{fill:#0365c0;}.cls-8{fill:#164f86;}.cls-9{fill:#002452;}.cls-10{fill:#000643;}</style><marker
   inkscape:stockid="TriangleOutL"
   orient="auto"
   refY="0"
   refX="0"
   id="marker5675"
   style="overflow:visible"
   inkscape:isstock="true"><path
     inkscape:connector-curvature="0"
     id="path5673"
     d="M 5.77,0 -2.88,5 V -5 Z"
     style="fill:#000000;fill-opacity:1;fill-rule:evenodd;stroke:#000000;stroke-width:1.00000003pt;stroke-opacity:1"
     transform="scale(0.8)" /></marker><marker
   inkscape:stockid="TriangleOutL"
   orient="auto"
   refY="0"
   refX="0"
   id="marker5607"
   style="overflow:visible"
   inkscape:isstock="true"><path
     inkscape:connector-curvature="0"
     id="path5605"
     d="M 5.77,0 -2.88,5 V -5 Z"
     style="fill:#000000;fill-opacity:1;fill-rule:evenodd;stroke:#000000;stroke-width:1.00000003pt;stroke-opacity:1"
     transform="scale(0.8)" /></marker><marker
   inkscape:stockid="TriangleOutL"
   orient="auto"
   refY="0"
   refX="0"
   id="marker4665"
   style="overflow:visible"
   inkscape:isstock="true"><path
     inkscape:connector-curvature="0"
     id="path4663"
     d="M 5.77,0 -2.88,5 V -5 Z"
     style="fill:#ffffff;fill-opacity:1;fill-rule:evenodd;stroke:#ffffff;stroke-width:1.00000003pt;stroke-opacity:1"
     transform="scale(0.8)" /></marker><marker
   inkscape:stockid="TriangleOutL"
   orient="auto"
   refY="0"
   refX="0"
   id="marker1839"
   style="overflow:visible"
   inkscape:isstock="true"><path
     inkscape:connector-curvature="0"
     id="path1837"
     d="M 5.77,0 -2.88,5 V -5 Z"
     style="fill:#ffffff;fill-opacity:1;fill-rule:evenodd;stroke:#ffffff;stroke-width:1.00000003pt;stroke-opacity:1"
     transform="scale(0.8)" /></marker><style
   id="style3292">.cls-1{fill:#f2f2f2;}.cls-2{fill:#fff;}.cls-3{fill:#e6b35a;}.cls-4{fill:#424242;}.cls-5{fill:#51a7f9;}.cls-6{fill:#a8d6ff;}.cls-7{fill:#0365c0;}.cls-8{fill:#164f86;}.cls-9{fill:#002452;}.cls-10{fill:#000643;}</style><clipPath
   id="clip3"><path
     id="path45"
     d="M 0,0 V 421 H 617 V 0 Z"
     inkscape:connector-curvature="0" /></clipPath><clipPath
   id="clip8"><path
     id="path100"
     d="M 0,0 V 421 H 617 V 0 Z"
     inkscape:connector-curvature="0" /></clipPath><style
   id="style4725">.cls-1{fill:#f2f2f2;}.cls-2{fill:#fff;}.cls-3{fill:#e6b35a;}.cls-4{fill:#424242;}.cls-5{fill:#51a7f9;}.cls-6{fill:#a8d6ff;}.cls-7{fill:#0365c0;}.cls-8{fill:#164f86;}.cls-9{fill:#002452;}.cls-10{fill:#000643;}</style><marker
   inkscape:stockid="TriangleOutL"
   orient="auto"
   refY="0"
   refX="0"
   id="marker5675-6"
   style="overflow:visible"
   inkscape:isstock="true"><path
     inkscape:connector-curvature="0"
     id="path5673-2"
     d="M 5.77,0 -2.88,5 V -5 Z"
     style="fill:#000000;fill-opacity:1;fill-rule:evenodd;stroke:#000000;stroke-width:1.00000003pt;stroke-opacity:1"
     transform="scale(0.8)" /></marker><marker
   inkscape:stockid="TriangleOutL"
   orient="auto"
   refY="0"
   refX="0"
   id="marker5607-9"
   style="overflow:visible"
   inkscape:isstock="true"><path
     inkscape:connector-curvature="0"
     id="path5605-1"
     d="M 5.77,0 -2.88,5 V -5 Z"
     style="fill:#000000;fill-opacity:1;fill-rule:evenodd;stroke:#000000;stroke-width:1.00000003pt;stroke-opacity:1"
     transform="scale(0.8)" /></marker><marker
   inkscape:stockid="TriangleOutL"
   orient="auto"
   refY="0"
   refX="0"
   id="marker4665-2"
   style="overflow:visible"
   inkscape:isstock="true"><path
     inkscape:connector-curvature="0"
     id="path4663-7"
     d="M 5.77,0 -2.88,5 V -5 Z"
     style="fill:#ffffff;fill-opacity:1;fill-rule:evenodd;stroke:#ffffff;stroke-width:1.00000003pt;stroke-opacity:1"
     transform="scale(0.8)" /></marker><marker
   inkscape:stockid="TriangleOutL"
   orient="auto"
   refY="0"
   refX="0"
   id="marker1839-0"
   style="overflow:visible"
   inkscape:isstock="true"><path
     inkscape:connector-curvature="0"
     id="path1837-9"
     d="M 5.77,0 -2.88,5 V -5 Z"
     style="fill:#ffffff;fill-opacity:1;fill-rule:evenodd;stroke:#ffffff;stroke-width:1.00000003pt;stroke-opacity:1"
     transform="scale(0.8)" /></marker></defs><sodipodi:namedview
   pagecolor="#ffffff"
   bordercolor="#666666"
   borderopacity="1"
   objecttolerance="10"
   gridtolerance="10"
   guidetolerance="10"
   inkscape:pageopacity="0"
   inkscape:pageshadow="2"
   inkscape:window-width="1600"
   inkscape:window-height="832"
   id="namedview109"
   showgrid="false"
   showguides="true"
   inkscape:guide-bbox="true"
   fit-margin-top="10"
   fit-margin-left="10"
   fit-margin-right="10"
   fit-margin-bottom="10"
   inkscape:zoom="0.5"
   inkscape:cx="112.99472"
   inkscape:cy="309.43544"
   inkscape:window-x="0"
   inkscape:window-y="32"
   inkscape:window-maximized="1"
   inkscape:current-layer="text5513" />
<style
   type="text/css"
   id="style2">
	.st0{fill:#80CFD3;stroke:#80CFD3;stroke-width:0.25;stroke-linejoin:round;stroke-miterlimit:1;}
	.st1{fill:#8BD3DA;stroke:#8BD3DA;stroke-width:0.25;stroke-linejoin:round;stroke-miterlimit:1;}
	.st2{fill:#67BAB1;stroke:#67BAB1;stroke-width:0.25;stroke-linejoin:round;stroke-miterlimit:1;}
	.st3{fill:#A6DCE7;stroke:#A6DCE7;stroke-width:0.25;stroke-linejoin:round;stroke-miterlimit:1;}
	.st4{fill:#8AD3DD;stroke:#8AD3DD;stroke-width:0.25;stroke-linejoin:round;stroke-miterlimit:1;}
	.st5{fill:#BBE4ED;stroke:#BBE4ED;stroke-width:0.25;stroke-linejoin:round;stroke-miterlimit:1;}
	.st6{fill:#E4F3F7;stroke:#E4F3F7;stroke-width:0.25;stroke-linejoin:round;stroke-miterlimit:1;}
	.st7{fill:#7CCCC8;stroke:#7CCCC8;stroke-width:0.25;stroke-linejoin:round;stroke-miterlimit:1;}
	.st8{fill:#74C3C1;stroke:#74C3C1;stroke-width:0.25;stroke-linejoin:round;stroke-miterlimit:1;}
	.st9{fill:#88D2DD;stroke:#88D2DD;stroke-width:0.25;stroke-linejoin:round;stroke-miterlimit:1;}
	.st10{fill:#8AD3E4;stroke:#8AD3E4;stroke-width:0.25;stroke-linejoin:round;stroke-miterlimit:1;}
	.st11{fill:#64B7AA;stroke:#64B7AA;stroke-width:0.25;stroke-linejoin:round;stroke-miterlimit:1;}
	.st12{fill:#9FDAE4;stroke:#9FDAE4;stroke-width:0.25;stroke-linejoin:round;stroke-miterlimit:1;}
	.st13{fill:#A8DEED;stroke:#A8DEED;stroke-width:0.25;stroke-linejoin:round;stroke-miterlimit:1;}
	.st14{fill:#B1E1F1;stroke:#B1E1F1;stroke-width:0.25;stroke-linejoin:round;stroke-miterlimit:1;}
	.st15{fill:#A0DCF4;stroke:#A0DCF4;stroke-width:0.25;stroke-linejoin:round;stroke-miterlimit:1;}
	.st16{fill:#9CD9E7;stroke:#9CD9E7;stroke-width:0.25;stroke-linejoin:round;stroke-miterlimit:1;}
	.st17{fill:#71C1BC;stroke:#71C1BC;stroke-width:0.25;stroke-linejoin:round;stroke-miterlimit:1;}
	.st18{fill:#9CD8E0;stroke:#9CD8E0;stroke-width:0.25;stroke-linejoin:round;stroke-miterlimit:1;}
	.st19{fill:#B2E1ED;stroke:#B2E1ED;stroke-width:0.25;stroke-linejoin:round;stroke-miterlimit:1;}
	.st20{fill:#7ACCCF;stroke:#7ACCCF;stroke-width:0.25;stroke-linejoin:round;stroke-miterlimit:1;}
	.st21{fill:#D4EDF3;stroke:#D4EDF3;stroke-width:0.25;stroke-linejoin:round;stroke-miterlimit:1;}
	.st22{fill:#7ACCC9;stroke:#7ACCC9;stroke-width:0.25;stroke-linejoin:round;stroke-miterlimit:1;}
	.st23{fill:#8DD3D8;stroke:#8DD3D8;stroke-width:0.25;stroke-linejoin:round;stroke-miterlimit:1;}
	.st24{fill:#6EBEBA;stroke:#6EBEBA;stroke-width:0.25;stroke-linejoin:round;stroke-miterlimit:1;}
	.st25{fill:#80CED0;stroke:#80CED0;stroke-width:0.25;stroke-linejoin:round;stroke-miterlimit:1;}
	.st26{fill:#8CD4E1;stroke:#8CD4E1;stroke-width:0.25;stroke-linejoin:round;stroke-miterlimit:1;}
	.st27{fill:#CDEBF1;stroke:#CDEBF1;stroke-width:0.25;stroke-linejoin:round;stroke-miterlimit:1;}
	.st28{fill:#ADE0F0;stroke:#ADE0F0;stroke-width:0.25;stroke-linejoin:round;stroke-miterlimit:1;}
	.st29{fill:#B9E3EC;stroke:#B9E3EC;stroke-width:0.25;stroke-linejoin:round;stroke-miterlimit:1;}
	.st30{fill:#8DD4E0;stroke:#8DD4E0;stroke-width:0.25;stroke-linejoin:round;stroke-miterlimit:1;}
	.st31{fill:#69BAB3;stroke:#69BAB3;stroke-width:0.25;stroke-linejoin:round;stroke-miterlimit:1;}
	.st32{fill:#CCEAF1;stroke:#CCEAF1;stroke-width:0.25;stroke-linejoin:round;stroke-miterlimit:1;}
	.st33{fill:#9BD9E6;stroke:#9BD9E6;stroke-width:0.25;stroke-linejoin:round;stroke-miterlimit:1;}
	.st34{fill:#A6DDF0;stroke:#A6DDF0;stroke-width:0.25;stroke-linejoin:round;stroke-miterlimit:1;}
	.st35{fill:#A3DDF8;stroke:#A3DDF8;stroke-width:0.25;stroke-linejoin:round;stroke-miterlimit:1;}
	.st36{fill:#79CAC7;stroke:#79CAC7;stroke-width:0.25;stroke-linejoin:round;stroke-miterlimit:1;}
	.st37{fill:#1A1A1A;}
</style>


<style
   id="style755"
   type="text/css">
	.st0{fill:#80CFD3;stroke:#80CFD3;stroke-width:0.25;stroke-linejoin:round;stroke-miterlimit:1;}
	.st1{fill:#8BD3DA;stroke:#8BD3DA;stroke-width:0.25;stroke-linejoin:round;stroke-miterlimit:1;}
	.st2{fill:#67BAB1;stroke:#67BAB1;stroke-width:0.25;stroke-linejoin:round;stroke-miterlimit:1;}
	.st3{fill:#A6DCE7;stroke:#A6DCE7;stroke-width:0.25;stroke-linejoin:round;stroke-miterlimit:1;}
	.st4{fill:#8AD3DD;stroke:#8AD3DD;stroke-width:0.25;stroke-linejoin:round;stroke-miterlimit:1;}
	.st5{fill:#BBE4ED;stroke:#BBE4ED;stroke-width:0.25;stroke-linejoin:round;stroke-miterlimit:1;}
	.st6{fill:#E4F3F7;stroke:#E4F3F7;stroke-width:0.25;stroke-linejoin:round;stroke-miterlimit:1;}
	.st7{fill:#7CCCC8;stroke:#7CCCC8;stroke-width:0.25;stroke-linejoin:round;stroke-miterlimit:1;}
	.st8{fill:#74C3C1;stroke:#74C3C1;stroke-width:0.25;stroke-linejoin:round;stroke-miterlimit:1;}
	.st9{fill:#88D2DD;stroke:#88D2DD;stroke-width:0.25;stroke-linejoin:round;stroke-miterlimit:1;}
	.st10{fill:#8AD3E4;stroke:#8AD3E4;stroke-width:0.25;stroke-linejoin:round;stroke-miterlimit:1;}
	.st11{fill:#64B7AA;stroke:#64B7AA;stroke-width:0.25;stroke-linejoin:round;stroke-miterlimit:1;}
	.st12{fill:#9FDAE4;stroke:#9FDAE4;stroke-width:0.25;stroke-linejoin:round;stroke-miterlimit:1;}
	.st13{fill:#A8DEED;stroke:#A8DEED;stroke-width:0.25;stroke-linejoin:round;stroke-miterlimit:1;}
	.st14{fill:#B1E1F1;stroke:#B1E1F1;stroke-width:0.25;stroke-linejoin:round;stroke-miterlimit:1;}
	.st15{fill:#A0DCF4;stroke:#A0DCF4;stroke-width:0.25;stroke-linejoin:round;stroke-miterlimit:1;}
	.st16{fill:#9CD9E7;stroke:#9CD9E7;stroke-width:0.25;stroke-linejoin:round;stroke-miterlimit:1;}
	.st17{fill:#71C1BC;stroke:#71C1BC;stroke-width:0.25;stroke-linejoin:round;stroke-miterlimit:1;}
	.st18{fill:#9CD8E0;stroke:#9CD8E0;stroke-width:0.25;stroke-linejoin:round;stroke-miterlimit:1;}
	.st19{fill:#B2E1ED;stroke:#B2E1ED;stroke-width:0.25;stroke-linejoin:round;stroke-miterlimit:1;}
	.st20{fill:#7ACCCF;stroke:#7ACCCF;stroke-width:0.25;stroke-linejoin:round;stroke-miterlimit:1;}
	.st21{fill:#D4EDF3;stroke:#D4EDF3;stroke-width:0.25;stroke-linejoin:round;stroke-miterlimit:1;}
	.st22{fill:#7ACCC9;stroke:#7ACCC9;stroke-width:0.25;stroke-linejoin:round;stroke-miterlimit:1;}
	.st23{fill:#8DD3D8;stroke:#8DD3D8;stroke-width:0.25;stroke-linejoin:round;stroke-miterlimit:1;}
	.st24{fill:#6EBEBA;stroke:#6EBEBA;stroke-width:0.25;stroke-linejoin:round;stroke-miterlimit:1;}
	.st25{fill:#80CED0;stroke:#80CED0;stroke-width:0.25;stroke-linejoin:round;stroke-miterlimit:1;}
	.st26{fill:#8CD4E1;stroke:#8CD4E1;stroke-width:0.25;stroke-linejoin:round;stroke-miterlimit:1;}
	.st27{fill:#CDEBF1;stroke:#CDEBF1;stroke-width:0.25;stroke-linejoin:round;stroke-miterlimit:1;}
	.st28{fill:#ADE0F0;stroke:#ADE0F0;stroke-width:0.25;stroke-linejoin:round;stroke-miterlimit:1;}
	.st29{fill:#B9E3EC;stroke:#B9E3EC;stroke-width:0.25;stroke-linejoin:round;stroke-miterlimit:1;}
	.st30{fill:#8DD4E0;stroke:#8DD4E0;stroke-width:0.25;stroke-linejoin:round;stroke-miterlimit:1;}
	.st31{fill:#69BAB3;stroke:#69BAB3;stroke-width:0.25;stroke-linejoin:round;stroke-miterlimit:1;}
	.st32{fill:#CCEAF1;stroke:#CCEAF1;stroke-width:0.25;stroke-linejoin:round;stroke-miterlimit:1;}
	.st33{fill:#9BD9E6;stroke:#9BD9E6;stroke-width:0.25;stroke-linejoin:round;stroke-miterlimit:1;}
	.st34{fill:#A6DDF0;stroke:#A6DDF0;stroke-width:0.25;stroke-linejoin:round;stroke-miterlimit:1;}
	.st35{fill:#A3DDF8;stroke:#A3DDF8;stroke-width:0.25;stroke-linejoin:round;stroke-miterlimit:1;}
	.st36{fill:#79CAC7;stroke:#79CAC7;stroke-width:0.25;stroke-linejoin:round;stroke-miterlimit:1;}
	.st37{fill:#1A1A1A;}
</style><g
   transform="matrix(43.030178,0,0,43.030178,1285.929,-3704.0603)"
   id="layer1"
   inkscape:label="Layer 1"
   style="fill:#38598a;fill-opacity:1"><g
     id="text817"
     style="font-style:normal;font-weight:normal;font-size:10.58333302px;line-height:125%;font-family:sans-serif;letter-spacing:0px;word-spacing:0px;fill:#38598a;fill-opacity:1;stroke:none;stroke-width:0.26458332px;stroke-linecap:butt;stroke-linejoin:miter;stroke-opacity:1"
     aria-label="Open Trade Statistics"
     transform="translate(-42.068749,-32.808333)"><path
       id="path5880"
       transform="matrix(0.26458333,0,0,0.26458333,12.645519,116.65887)"
       d="m 32.007812,9.3066406 v 3.1601564 c -4.625522,0.0091 -8.807286,1.009651 -12.544921,3.005859 -3.711999,2.005342 -6.634243,4.778971 -8.767579,8.320313 -2.0906636,3.498671 -3.1367183,7.445199 -3.1367182,11.839843 0,4.394684 1.0460546,8.362993 3.1367182,11.904297 2.133336,3.498671 5.05558,6.250556 8.767579,8.25586 3.754665,2.005341 7.956755,3.007812 12.607421,3.007812 4.650668,0 8.832924,-1.002471 12.544922,-3.007812 3.711999,-2.005304 6.634244,-4.757189 8.767578,-8.25586 2.133332,-3.541304 3.201172,-7.509613 3.201172,-11.904297 0,-4.394644 -1.06784,-8.341172 -3.201172,-11.839843 -0.949069,-1.57546 -2.062706,-2.990257 -3.324218,-4.261719 l -8.751953,5.060547 c 1.172047,0.999388 2.147825,2.203738 2.923828,3.617187 1.237334,2.175988 1.857422,4.650526 1.857422,7.423828 0,2.773342 -0.620088,5.247841 -1.857422,7.423829 -1.194667,2.175987 -2.858852,3.883752 -4.992188,5.121093 -2.133331,1.194671 -4.522636,1.791016 -7.167969,1.791016 -2.645331,0 -5.034633,-0.596345 -7.167968,-1.791016 -2.133336,-1.237341 -3.817357,-2.945106 -5.054688,-5.121093 -1.194667,-2.175988 -1.792969,-4.650487 -1.792968,-7.423829 0,-2.773302 0.598301,-5.24784 1.792968,-7.423828 1.237331,-2.176025 2.921352,-3.861969 5.054688,-5.05664 2.116335,-1.227445 4.485264,-1.843743 7.105468,-1.853516 v 3.125 l 13.078126,-7.558594 z"
       style="font-style:normal;font-variant:normal;font-weight:bold;font-stretch:normal;font-size:16.93333244px;font-family:Montserrat;-inkscape-font-specification:'Montserrat Bold';fill:#38598a;fill-opacity:1;stroke:none;stroke-width:0.99999994px"
       inkscape:connector-curvature="0" /><path
       inkscape:connector-curvature="0"
       id="path5888"
       d="m 22.158203,120.87155 v 0.5 h 0.392578 v -0.5 z"
       style="color:#000000;font-style:normal;font-variant:normal;font-weight:normal;font-stretch:normal;font-size:medium;line-height:125%;font-family:sans-serif;font-variant-ligatures:normal;font-variant-position:normal;font-variant-caps:normal;font-variant-numeric:normal;font-variant-alternates:normal;font-feature-settings:normal;text-indent:0;text-align:start;text-decoration:none;text-decoration-line:none;text-decoration-style:solid;text-decoration-color:#000000;letter-spacing:0px;word-spacing:0px;text-transform:none;writing-mode:lr-tb;direction:ltr;text-orientation:mixed;dominant-baseline:auto;baseline-shift:baseline;text-anchor:start;white-space:normal;shape-padding:0;clip-rule:nonzero;display:inline;overflow:visible;visibility:visible;opacity:1;isolation:auto;mix-blend-mode:normal;color-interpolation:sRGB;color-interpolation-filters:linearRGB;solid-color:#000000;solid-opacity:1;vector-effect:none;fill:#38598a;fill-opacity:1;fill-rule:evenodd;stroke:none;stroke-width:0.5;stroke-linecap:butt;stroke-linejoin:miter;stroke-miterlimit:4;stroke-dasharray:none;stroke-dashoffset:0;stroke-opacity:1;color-rendering:auto;image-rendering:auto;shape-rendering:auto;text-rendering:auto;enable-background:accumulate" /></g></g><g
   aria-label="opentradestatistics"
   style="font-style:normal;font-weight:normal;font-size:84.27565002px;line-height:1.25;font-family:sans-serif;letter-spacing:0px;word-spacing:0px;fill:#000000;fill-opacity:1;stroke:none;stroke-width:2.10689116"
   id="text5513"><path
     d="M 31.911669,652.34777 C 18.259014,652.34777 10,661.78664 10,676.1135 c 0,15.08534 8.343289,23.85001 21.911669,23.85001 13.652655,0 21.911669,-9.43887 21.911669,-23.76573 0,-15.08535 -8.259014,-23.85001 -21.911669,-23.85001 z m 0,9.77597 c 5.393642,0 8.090462,4.12951 8.090462,14.07404 0,9.6917 -2.69682,13.98975 -8.090462,13.98975 -5.393642,0 -8.090462,-4.1295 -8.090462,-14.07403 0,-9.6917 2.69682,-13.98976 8.090462,-13.98976 z"
     style="fill:#38598a;fill-opacity:1"
     id="path894" /><path
     d="m 87.026628,652.34777 c -4.382333,0 -9.186045,1.76979 -12.894174,6.40495 l -0.674205,-4.97227 H 61.743933 v 63.45957 l 13.315553,-1.43269 v -20.47898 c 2.781097,3.1182 6.489225,4.63516 10.871559,4.63516 11.04011,0 17.782165,-10.11308 17.782165,-23.93429 0,-14.49541 -5.140817,-23.68145 -16.686582,-23.68145 z m -5.140814,37.83976 c -2.781097,0 -4.972264,-1.26413 -6.826328,-3.96095 v -18.87775 c 1.93834,-3.28675 4.635161,-5.22509 7.75336,-5.22509 4.382334,0 7.079155,2.94965 7.079155,14.07404 0,10.0288 -3.033924,13.98975 -8.006187,13.98975 z"
     style="fill:#38598a;fill-opacity:1"
     id="path896" /><path
     d="m 151.13143,675.27074 c 0,-14.49541 -7.83764,-22.92297 -20.64753,-22.92297 -13.56838,0 -20.90037,10.61873 -20.90037,24.01856 0,13.98975 7.58481,23.59718 22.5016,23.59718 7.24771,0 12.97845,-2.69682 17.44506,-6.2364 l -5.47791,-7.41626 c -3.87668,2.69682 -7.07916,3.96096 -10.70301,3.96096 -5.47792,0 -9.27032,-2.19117 -10.19736,-10.19735 h 27.72669 c 0.16855,-1.34842 0.25283,-3.37103 0.25283,-4.80372 z m -13.06273,-3.20247 h -14.91679 c 0.58993,-8.00619 3.20248,-10.87156 7.66909,-10.87156 5.30936,0 7.16343,4.21378 7.2477,10.28163 z"
     style="fill:#38598a;fill-opacity:1"
     id="path898" /><path
     d="m 184.90359,652.34777 c -5.5622,0 -9.86026,2.27544 -13.65266,6.74205 l -0.92703,-5.30937 h -11.63004 v 44.75037 h 13.31555 v -30.59206 c 2.35972,-3.70813 4.80371,-5.81502 7.75336,-5.81502 2.61255,0 4.21378,1.26414 4.21378,5.98357 v 30.42351 h 13.31556 v -32.69895 c 0,-8.51184 -4.63517,-13.4841 -12.38852,-13.4841 z"
     style="fill:#38598a;fill-opacity:1"
     id="path900" /><path
     d="m 230.84829,687.99637 c -1.76979,1.0113 -3.28675,1.43268 -4.80371,1.43268 -2.7811,0 -4.21378,-1.51696 -4.21378,-5.81502 v -20.56326 h 8.84894 l 1.43269,-9.27032 H 221.8308 v -11.20866 l -13.31556,1.51696 v 9.6917 h -6.32067 v 9.27032 h 6.32067 v 20.73181 c 0,10.53446 4.80372,16.09665 14.66397,16.18093 4.04523,0 8.76466,-1.17986 12.13569,-3.53958 z"
     style="fill:#424242"
     id="path902" /><path
     d="m 264.11347,652.51632 c -5.14082,0 -9.52315,3.70813 -11.54577,9.94452 l -1.09558,-8.68039 h -11.63004 v 44.75037 h 13.31555 v -22.16449 c 1.43269,-6.82633 3.70813,-10.95584 9.27033,-10.95584 1.51696,0 2.61254,0.25283 4.04523,0.58993 l 2.10689,-12.89417 c -1.43269,-0.42138 -2.7811,-0.58993 -4.46661,-0.58993 z"
     style="fill:#424242"
     id="path904" /><path
     d="m 306.18677,685.55237 v -17.36078 c 0,-10.36591 -5.56219,-15.84382 -18.54064,-15.84382 -5.05654,0 -11.20866,1.17986 -16.85513,3.28675 l 3.03392,8.76466 c 4.46661,-1.51696 8.84894,-2.35971 11.71432,-2.35971 5.47791,0 7.58481,1.60123 7.58481,6.9106 v 1.93834 h -4.55089 c -13.56838,0 -20.98464,5.30937 -20.98464,15.08534 0,8.17474 5.64647,13.98976 14.57969,13.98976 5.30937,0 10.28163,-1.76979 13.4841,-6.74205 2.02262,4.46661 5.47792,6.06784 10.78729,6.48922 l 2.78109,-8.68039 c -2.10689,-0.75848 -3.03392,-2.02262 -3.03392,-5.47792 z m -20.14188,4.88799 c -3.28675,0 -5.22509,-2.10689 -5.22509,-5.64647 0,-4.46661 2.94965,-6.5735 9.0175,-6.5735 h 3.28675 v 7.92191 c -1.60124,2.69682 -3.96096,4.29806 -7.07916,4.29806 z"
     style="fill:#424242"
     id="path906" /><path
     d="m 343.67494,634.5656 v 21.99595 c -2.61254,-2.61255 -6.2364,-4.21378 -10.61873,-4.21378 -11.04011,0 -18.28782,9.86025 -18.28782,23.68145 0,14.49542 5.64647,23.93429 17.02369,23.93429 6.06784,0 10.11307,-2.94965 12.72562,-6.65778 l 0.6742,5.22509 h 11.79859 v -62.53253 z m -7.75336,55.62193 c -4.29806,0 -7.33198,-2.94964 -7.33198,-14.07403 0,-10.0288 3.37103,-14.07403 8.09046,-14.07403 2.94965,0 4.97227,1.43268 6.99488,3.7924 v 19.29912 c -2.10689,3.37103 -4.55088,5.05654 -7.75336,5.05654 z"
     style="fill:#424242"
     id="path908" /><path
     d="m 406.42738,675.27074 c 0,-14.49541 -7.83763,-22.92297 -20.64753,-22.92297 -13.56838,0 -20.90036,10.61873 -20.90036,24.01856 0,13.98975 7.5848,23.59718 22.50159,23.59718 7.24771,0 12.97845,-2.69682 17.44506,-6.2364 l -5.47791,-7.41626 c -3.87668,2.69682 -7.07916,3.96096 -10.70301,3.96096 -5.47792,0 -9.27032,-2.19117 -10.19735,-10.19735 h 27.72668 c 0.16856,-1.34842 0.25283,-3.37103 0.25283,-4.80372 z m -13.06272,-3.20247 h -14.91679 c 0.58993,-8.00619 3.20247,-10.87156 7.66908,-10.87156 5.30937,0 7.16343,4.21378 7.24771,10.28163 z"
     style="fill:#424242"
     id="path910" /><path
     d="m 429.74936,652.34777 c -11.29293,0 -18.28781,5.98357 -18.28781,13.65265 0,6.91061 4.38233,11.46149 13.23127,13.98976 8.09047,2.27544 9.43888,3.20247 9.43888,6.2364 0,2.69682 -2.444,4.21378 -6.48923,4.21378 -4.38233,0 -8.51184,-1.76979 -11.88286,-4.38233 l -6.48923,7.2477 c 4.38233,3.96096 10.95584,6.65778 18.7092,6.65778 11.12438,0 19.88905,-5.47792 19.88905,-14.74824 0,-8.00619 -4.97226,-11.71432 -13.82121,-14.24258 -8.00618,-2.35972 -9.18604,-3.37103 -9.18604,-5.73075 0,-2.02261 1.76978,-3.37103 5.39364,-3.37103 3.87668,0 7.58481,1.26414 11.04011,3.45531 l 4.88799,-7.50054 c -4.12951,-3.37102 -9.94453,-5.47791 -16.43376,-5.47791 z"
     style="fill:#424242"
     id="path912" /><path
     d="m 478.24343,687.99637 c -1.76979,1.0113 -3.28675,1.43268 -4.80371,1.43268 -2.7811,0 -4.21378,-1.51696 -4.21378,-5.81502 v -20.56326 h 8.84894 l 1.43269,-9.27032 h -10.28163 v -11.20866 l -13.31555,1.51696 v 9.6917 h -6.32068 v 9.27032 h 6.32068 v 20.73181 c 0,10.53446 4.80371,16.09665 14.66396,16.18093 4.04523,0 8.76467,-1.17986 12.13569,-3.53958 z"
     style="fill:#424242"
     id="path914" /><path
     d="m 521.81394,685.55237 v -17.36078 c 0,-10.36591 -5.5622,-15.84382 -18.54065,-15.84382 -5.05653,0 -11.20866,1.17986 -16.85513,3.28675 l 3.03393,8.76466 c 4.46661,-1.51696 8.84894,-2.35971 11.71431,-2.35971 5.47792,0 7.58481,1.60123 7.58481,6.9106 v 1.93834 h -4.55088 c -13.56838,0 -20.98464,5.30937 -20.98464,15.08534 0,8.17474 5.64647,13.98976 14.57969,13.98976 5.30936,0 10.28163,-1.76979 13.4841,-6.74205 2.02262,4.46661 5.47792,6.06784 10.78728,6.48922 l 2.7811,-8.68039 c -2.10689,-0.75848 -3.03392,-2.02262 -3.03392,-5.47792 z m -20.14188,4.88799 c -3.28675,0 -5.22509,-2.10689 -5.22509,-5.64647 0,-4.46661 2.94964,-6.5735 9.01749,-6.5735 h 3.28675 v 7.92191 c -1.60124,2.69682 -3.96095,4.29806 -7.07915,4.29806 z"
     style="fill:#424242"
     id="path916" /><path
     d="m 556.09963,687.99637 c -1.76978,1.0113 -3.28675,1.43268 -4.80371,1.43268 -2.78109,0 -4.21378,-1.51696 -4.21378,-5.81502 v -20.56326 h 8.84894 l 1.43269,-9.27032 h -10.28163 v -11.20866 l -13.31555,1.51696 v 9.6917 h -6.32068 v 9.27032 h 6.32068 v 20.73181 c 0,10.53446 4.80371,16.09665 14.66396,16.18093 4.04523,0 8.76467,-1.17986 12.13569,-3.53958 z"
     style="fill:#424242"
     id="path918" /><path
     d="m 571.66689,630.18327 c -4.63516,0 -7.83763,3.28675 -7.83763,7.58481 0,4.29806 3.20247,7.58481 7.83763,7.58481 4.63517,0 7.92192,-3.28675 7.92192,-7.58481 0,-4.29806 -3.28675,-7.58481 -7.92192,-7.58481 z m 6.74206,23.59718 h -13.31556 v 44.75037 h 13.31556 z"
     style="fill:#424242"
     id="path920" /><path
     d="m 604.55552,652.34777 c -11.29294,0 -18.28782,5.98357 -18.28782,13.65265 0,6.91061 4.38233,11.46149 13.23128,13.98976 8.09046,2.27544 9.43887,3.20247 9.43887,6.2364 0,2.69682 -2.44399,4.21378 -6.48922,4.21378 -4.38234,0 -8.51185,-1.76979 -11.88287,-4.38233 l -6.48923,7.2477 c 4.38234,3.96096 10.95584,6.65778 18.7092,6.65778 11.12438,0 19.88905,-5.47792 19.88905,-14.74824 0,-8.00619 -4.97226,-11.71432 -13.82121,-14.24258 -8.00618,-2.35972 -9.18604,-3.37103 -9.18604,-5.73075 0,-2.02261 1.76979,-3.37103 5.39364,-3.37103 3.87668,0 7.58481,1.26414 11.04011,3.45531 l 4.88799,-7.50054 c -4.12951,-3.37102 -9.94453,-5.47791 -16.43375,-5.47791 z"
     style="fill:#424242"
     id="path922" /><path
     d="m 653.04952,687.99637 c -1.76978,1.0113 -3.28675,1.43268 -4.80371,1.43268 -2.78109,0 -4.21378,-1.51696 -4.21378,-5.81502 v -20.56326 h 8.84894 l 1.43269,-9.27032 h -10.28163 v -11.20866 l -13.31555,1.51696 v 9.6917 h -6.32068 v 9.27032 h 6.32068 v 20.73181 c 0,10.53446 4.80371,16.09665 14.66396,16.18093 4.04523,0 8.76467,-1.17986 12.13569,-3.53958 z"
     style="fill:#424242"
     id="path924" /><path
     d="m 668.61685,630.18327 c -4.63516,0 -7.83764,3.28675 -7.83764,7.58481 0,4.29806 3.20248,7.58481 7.83764,7.58481 4.63516,0 7.92191,-3.28675 7.92191,-7.58481 0,-4.29806 -3.28675,-7.58481 -7.92191,-7.58481 z m 6.74205,23.59718 h -13.31555 v 44.75037 h 13.31555 z"
     style="fill:#424242"
     id="path926" /><path
     d="m 705.12926,652.34777 c -13.39983,0 -21.91167,9.94452 -21.91167,24.18711 0,14.15831 8.42757,23.42863 22.1645,23.42863 6.15212,0 10.95583,-2.02262 15.08534,-5.30937 l -5.81502,-8.25901 c -3.20248,2.02261 -5.39364,3.03392 -8.59612,3.03392 -5.30936,0 -8.84894,-3.03392 -8.84894,-12.97845 0,-10.0288 3.28675,-13.90548 9.01749,-13.90548 3.03393,0 5.64647,1.01131 8.51184,3.20247 l 5.73075,-7.92191 c -4.29806,-3.62385 -9.10177,-5.47791 -15.33817,-5.47791 z"
     style="fill:#424242"
     id="path928" /><path
     d="m 741.83262,652.34777 c -11.29294,0 -18.28782,5.98357 -18.28782,13.65265 0,6.91061 4.38233,11.46149 13.23128,13.98976 8.09046,2.27544 9.43887,3.20247 9.43887,6.2364 0,2.69682 -2.44399,4.21378 -6.48923,4.21378 -4.38233,0 -8.51184,-1.76979 -11.88286,-4.38233 l -6.48923,7.2477 c 4.38234,3.96096 10.95584,6.65778 18.7092,6.65778 11.12438,0 19.88905,-5.47792 19.88905,-14.74824 0,-8.00619 -4.97226,-11.71432 -13.82121,-14.24258 -8.00618,-2.35972 -9.18604,-3.37103 -9.18604,-5.73075 0,-2.02261 1.76979,-3.37103 5.39364,-3.37103 3.87668,0 7.58481,1.26414 11.04011,3.45531 l 4.88799,-7.50054 c -4.12951,-3.37102 -9.94453,-5.47791 -16.43375,-5.47791 z"
     style="fill:#424242"
     id="path930" /></g>
</svg>