<?xml version="1.0" encoding="UTF-8" standalone="no"?>
<!-- Generator: Adobe Illustrator 19.2.1, SVG Export Plug-In . SVG Version: 6.00 Build 0)  -->

<svg
   xmlns:dc="http://purl.org/dc/elements/1.1/"
   xmlns:cc="http://creativecommons.org/ns#"
   xmlns:rdf="http://www.w3.org/1999/02/22-rdf-syntax-ns#"
   xmlns:svg="http://www.w3.org/2000/svg"
   xmlns="http://www.w3.org/2000/svg"
   xmlns:sodipodi="http://sodipodi.sourceforge.net/DTD/sodipodi-0.dtd"
   xmlns:inkscape="http://www.inkscape.org/namespaces/inkscape"
   version="1.1"
   id="Layer_1"
   x="0px"
   y="0px"
   viewBox="0 0 4311.4541 957.54905"
   xml:space="preserve"
   sodipodi:docname="logo-white-horizontal.svg"
   width="4311.4541"
   height="957.54907"
   inkscape:version="0.92.4 (5da689c313, 2019-01-14)"><metadata
   id="metadata113"><rdf:RDF><cc:Work
       rdf:about=""><dc:format>image/svg+xml</dc:format><dc:type
         rdf:resource="http://purl.org/dc/dcmitype/StillImage" /><dc:title></dc:title></cc:Work></rdf:RDF></metadata><defs
   id="defs111"><style
   id="style304">.cls-1{fill:#f2f2f2;}.cls-2{fill:#fff;}.cls-3{fill:#e6b35a;}.cls-4{fill:#424242;}.cls-5{fill:#51a7f9;}.cls-6{fill:#a8d6ff;}.cls-7{fill:#0365c0;}.cls-8{fill:#164f86;}.cls-9{fill:#002452;}.cls-10{fill:#000643;}</style>
	
	

	
	
	
	
	
	
	
	
	
	
	
	
	
	
	
	
	
	
	
	
	
	
	
	
	
	
	
	
	
	
	
	
	
	
	
	
	
	
	
	

		
		
		
		
		
		
		
		
	<style
   id="style2069">.cls-1{fill:#f2f2f2;}.cls-2{fill:#fff;}.cls-3{fill:#e6b35a;}.cls-4{fill:#424242;}.cls-5{fill:#51a7f9;}.cls-6{fill:#a8d6ff;}.cls-7{fill:#0365c0;}.cls-8{fill:#164f86;}.cls-9{fill:#002452;}.cls-10{fill:#000643;}</style><style
   id="style2501">.cls-1{fill:#f2f2f2;}.cls-2{fill:#fff;}.cls-3{fill:#e6b35a;}.cls-4{fill:#424242;}.cls-5{fill:#51a7f9;}.cls-6{fill:#a8d6ff;}.cls-7{fill:#0365c0;}.cls-8{fill:#164f86;}.cls-9{fill:#002452;}.cls-10{fill:#000643;}</style><marker
   inkscape:stockid="TriangleOutL"
   orient="auto"
   refY="0"
   refX="0"
   id="marker5675"
   style="overflow:visible"
   inkscape:isstock="true"><path
     inkscape:connector-curvature="0"
     id="path5673"
     d="M 5.77,0 -2.88,5 V -5 Z"
     style="fill:#000000;fill-opacity:1;fill-rule:evenodd;stroke:#000000;stroke-width:1.00000003pt;stroke-opacity:1"
     transform="scale(0.8)" /></marker><marker
   inkscape:stockid="TriangleOutL"
   orient="auto"
   refY="0"
   refX="0"
   id="marker5607"
   style="overflow:visible"
   inkscape:isstock="true"><path
     inkscape:connector-curvature="0"
     id="path5605"
     d="M 5.77,0 -2.88,5 V -5 Z"
     style="fill:#000000;fill-opacity:1;fill-rule:evenodd;stroke:#000000;stroke-width:1.00000003pt;stroke-opacity:1"
     transform="scale(0.8)" /></marker><marker
   inkscape:stockid="TriangleOutL"
   orient="auto"
   refY="0"
   refX="0"
   id="marker4665"
   style="overflow:visible"
   inkscape:isstock="true"><path
     inkscape:connector-curvature="0"
     id="path4663"
     d="M 5.77,0 -2.88,5 V -5 Z"
     style="fill:#ffffff;fill-opacity:1;fill-rule:evenodd;stroke:#ffffff;stroke-width:1.00000003pt;stroke-opacity:1"
     transform="scale(0.8)" /></marker><marker
   inkscape:stockid="TriangleOutL"
   orient="auto"
   refY="0"
   refX="0"
   id="marker1839"
   style="overflow:visible"
   inkscape:isstock="true"><path
     inkscape:connector-curvature="0"
     id="path1837"
     d="M 5.77,0 -2.88,5 V -5 Z"
     style="fill:#ffffff;fill-opacity:1;fill-rule:evenodd;stroke:#ffffff;stroke-width:1.00000003pt;stroke-opacity:1"
     transform="scale(0.8)" /></marker><style
   id="style3292">.cls-1{fill:#f2f2f2;}.cls-2{fill:#fff;}.cls-3{fill:#e6b35a;}.cls-4{fill:#424242;}.cls-5{fill:#51a7f9;}.cls-6{fill:#a8d6ff;}.cls-7{fill:#0365c0;}.cls-8{fill:#164f86;}.cls-9{fill:#002452;}.cls-10{fill:#000643;}</style><clipPath
   id="clip3"><path
     id="path45"
     d="M 0,0 V 421 H 617 V 0 Z"
     inkscape:connector-curvature="0" /></clipPath><clipPath
   id="clip8"><path
     id="path100"
     d="M 0,0 V 421 H 617 V 0 Z"
     inkscape:connector-curvature="0" /></clipPath><style
   id="style4725">.cls-1{fill:#f2f2f2;}.cls-2{fill:#fff;}.cls-3{fill:#e6b35a;}.cls-4{fill:#424242;}.cls-5{fill:#51a7f9;}.cls-6{fill:#a8d6ff;}.cls-7{fill:#0365c0;}.cls-8{fill:#164f86;}.cls-9{fill:#002452;}.cls-10{fill:#000643;}</style><marker
   inkscape:stockid="TriangleOutL"
   orient="auto"
   refY="0"
   refX="0"
   id="marker5675-6"
   style="overflow:visible"
   inkscape:isstock="true"><path
     inkscape:connector-curvature="0"
     id="path5673-2"
     d="M 5.77,0 -2.88,5 V -5 Z"
     style="fill:#000000;fill-opacity:1;fill-rule:evenodd;stroke:#000000;stroke-width:1.00000003pt;stroke-opacity:1"
     transform="scale(0.8)" /></marker><marker
   inkscape:stockid="TriangleOutL"
   orient="auto"
   refY="0"
   refX="0"
   id="marker5607-9"
   style="overflow:visible"
   inkscape:isstock="true"><path
     inkscape:connector-curvature="0"
     id="path5605-1"
     d="M 5.77,0 -2.88,5 V -5 Z"
     style="fill:#000000;fill-opacity:1;fill-rule:evenodd;stroke:#000000;stroke-width:1.00000003pt;stroke-opacity:1"
     transform="scale(0.8)" /></marker><marker
   inkscape:stockid="TriangleOutL"
   orient="auto"
   refY="0"
   refX="0"
   id="marker4665-2"
   style="overflow:visible"
   inkscape:isstock="true"><path
     inkscape:connector-curvature="0"
     id="path4663-7"
     d="M 5.77,0 -2.88,5 V -5 Z"
     style="fill:#ffffff;fill-opacity:1;fill-rule:evenodd;stroke:#ffffff;stroke-width:1.00000003pt;stroke-opacity:1"
     transform="scale(0.8)" /></marker><marker
   inkscape:stockid="TriangleOutL"
   orient="auto"
   refY="0"
   refX="0"
   id="marker1839-0"
   style="overflow:visible"
   inkscape:isstock="true"><path
     inkscape:connector-curvature="0"
     id="path1837-9"
     d="M 5.77,0 -2.88,5 V -5 Z"
     style="fill:#ffffff;fill-opacity:1;fill-rule:evenodd;stroke:#ffffff;stroke-width:1.00000003pt;stroke-opacity:1"
     transform="scale(0.8)" /></marker><style
   id="style304-5">.cls-1{fill:#f2f2f2;}.cls-2{fill:#fff;}.cls-3{fill:#e6b35a;}.cls-4{fill:#424242;}.cls-5{fill:#51a7f9;}.cls-6{fill:#a8d6ff;}.cls-7{fill:#0365c0;}.cls-8{fill:#164f86;}.cls-9{fill:#002452;}.cls-10{fill:#000643;}</style><style
   id="style2069-3">.cls-1{fill:#f2f2f2;}.cls-2{fill:#fff;}.cls-3{fill:#e6b35a;}.cls-4{fill:#424242;}.cls-5{fill:#51a7f9;}.cls-6{fill:#a8d6ff;}.cls-7{fill:#0365c0;}.cls-8{fill:#164f86;}.cls-9{fill:#002452;}.cls-10{fill:#000643;}</style><style
   id="style2501-5">.cls-1{fill:#f2f2f2;}.cls-2{fill:#fff;}.cls-3{fill:#e6b35a;}.cls-4{fill:#424242;}.cls-5{fill:#51a7f9;}.cls-6{fill:#a8d6ff;}.cls-7{fill:#0365c0;}.cls-8{fill:#164f86;}.cls-9{fill:#002452;}.cls-10{fill:#000643;}</style><marker
   inkscape:isstock="true"
   style="overflow:visible"
   id="marker5675-62"
   refX="0"
   refY="0"
   orient="auto"
   inkscape:stockid="TriangleOutL"><path
     transform="scale(0.8)"
     style="fill:#000000;fill-opacity:1;fill-rule:evenodd;stroke:#000000;stroke-width:1.00000003pt;stroke-opacity:1"
     d="M 5.77,0 -2.88,5 V -5 Z"
     id="path5673-9"
     inkscape:connector-curvature="0" /></marker><marker
   inkscape:isstock="true"
   style="overflow:visible"
   id="marker5607-1"
   refX="0"
   refY="0"
   orient="auto"
   inkscape:stockid="TriangleOutL"><path
     transform="scale(0.8)"
     style="fill:#000000;fill-opacity:1;fill-rule:evenodd;stroke:#000000;stroke-width:1.00000003pt;stroke-opacity:1"
     d="M 5.77,0 -2.88,5 V -5 Z"
     id="path5605-2"
     inkscape:connector-curvature="0" /></marker><marker
   inkscape:isstock="true"
   style="overflow:visible"
   id="marker4665-7"
   refX="0"
   refY="0"
   orient="auto"
   inkscape:stockid="TriangleOutL"><path
     transform="scale(0.8)"
     style="fill:#ffffff;fill-opacity:1;fill-rule:evenodd;stroke:#ffffff;stroke-width:1.00000003pt;stroke-opacity:1"
     d="M 5.77,0 -2.88,5 V -5 Z"
     id="path4663-0"
     inkscape:connector-curvature="0" /></marker><marker
   inkscape:isstock="true"
   style="overflow:visible"
   id="marker1839-9"
   refX="0"
   refY="0"
   orient="auto"
   inkscape:stockid="TriangleOutL"><path
     transform="scale(0.8)"
     style="fill:#ffffff;fill-opacity:1;fill-rule:evenodd;stroke:#ffffff;stroke-width:1.00000003pt;stroke-opacity:1"
     d="M 5.77,0 -2.88,5 V -5 Z"
     id="path1837-3"
     inkscape:connector-curvature="0" /></marker><style
   id="style3292-6">.cls-1{fill:#f2f2f2;}.cls-2{fill:#fff;}.cls-3{fill:#e6b35a;}.cls-4{fill:#424242;}.cls-5{fill:#51a7f9;}.cls-6{fill:#a8d6ff;}.cls-7{fill:#0365c0;}.cls-8{fill:#164f86;}.cls-9{fill:#002452;}.cls-10{fill:#000643;}</style><clipPath
   id="clip3-0"><path
     inkscape:connector-curvature="0"
     d="M 0,0 V 421 H 617 V 0 Z"
     id="path45-6" /></clipPath><clipPath
   id="clip8-2"><path
     inkscape:connector-curvature="0"
     d="M 0,0 V 421 H 617 V 0 Z"
     id="path100-6" /></clipPath><style
   id="style4725-1">.cls-1{fill:#f2f2f2;}.cls-2{fill:#fff;}.cls-3{fill:#e6b35a;}.cls-4{fill:#424242;}.cls-5{fill:#51a7f9;}.cls-6{fill:#a8d6ff;}.cls-7{fill:#0365c0;}.cls-8{fill:#164f86;}.cls-9{fill:#002452;}.cls-10{fill:#000643;}</style><marker
   inkscape:isstock="true"
   style="overflow:visible"
   id="marker5675-6-8"
   refX="0"
   refY="0"
   orient="auto"
   inkscape:stockid="TriangleOutL"><path
     transform="scale(0.8)"
     style="fill:#000000;fill-opacity:1;fill-rule:evenodd;stroke:#000000;stroke-width:1.00000003pt;stroke-opacity:1"
     d="M 5.77,0 -2.88,5 V -5 Z"
     id="path5673-2-7"
     inkscape:connector-curvature="0" /></marker><marker
   inkscape:isstock="true"
   style="overflow:visible"
   id="marker5607-9-9"
   refX="0"
   refY="0"
   orient="auto"
   inkscape:stockid="TriangleOutL"><path
     transform="scale(0.8)"
     style="fill:#000000;fill-opacity:1;fill-rule:evenodd;stroke:#000000;stroke-width:1.00000003pt;stroke-opacity:1"
     d="M 5.77,0 -2.88,5 V -5 Z"
     id="path5605-1-2"
     inkscape:connector-curvature="0" /></marker><marker
   inkscape:isstock="true"
   style="overflow:visible"
   id="marker4665-2-0"
   refX="0"
   refY="0"
   orient="auto"
   inkscape:stockid="TriangleOutL"><path
     transform="scale(0.8)"
     style="fill:#ffffff;fill-opacity:1;fill-rule:evenodd;stroke:#ffffff;stroke-width:1.00000003pt;stroke-opacity:1"
     d="M 5.77,0 -2.88,5 V -5 Z"
     id="path4663-7-2"
     inkscape:connector-curvature="0" /></marker><marker
   inkscape:isstock="true"
   style="overflow:visible"
   id="marker1839-0-3"
   refX="0"
   refY="0"
   orient="auto"
   inkscape:stockid="TriangleOutL"><path
     transform="scale(0.8)"
     style="fill:#ffffff;fill-opacity:1;fill-rule:evenodd;stroke:#ffffff;stroke-width:1.00000003pt;stroke-opacity:1"
     d="M 5.77,0 -2.88,5 V -5 Z"
     id="path1837-9-7"
     inkscape:connector-curvature="0" /></marker></defs><sodipodi:namedview
   pagecolor="#ffffff"
   bordercolor="#666666"
   borderopacity="1"
   objecttolerance="10"
   gridtolerance="10"
   guidetolerance="10"
   inkscape:pageopacity="0"
   inkscape:pageshadow="2"
   inkscape:window-width="1366"
   inkscape:window-height="705"
   id="namedview109"
   showgrid="false"
   showguides="true"
   inkscape:guide-bbox="true"
   fit-margin-top="0"
   fit-margin-left="0"
   fit-margin-right="0"
   fit-margin-bottom="0"
   inkscape:zoom="0.1767767"
   inkscape:cx="1785.1397"
   inkscape:cy="434.7697"
   inkscape:window-x="-8"
   inkscape:window-y="-8"
   inkscape:window-maximized="1"
   inkscape:current-layer="Layer_1"><sodipodi:guide
     position="1029.5475,478.7113"
     orientation="0,1"
     id="guide365"
     inkscape:locked="false" /></sodipodi:namedview>
<style
   type="text/css"
   id="style2">
	.st0{fill:#80CFD3;stroke:#80CFD3;stroke-width:0.25;stroke-linejoin:round;stroke-miterlimit:1;}
	.st1{fill:#8BD3DA;stroke:#8BD3DA;stroke-width:0.25;stroke-linejoin:round;stroke-miterlimit:1;}
	.st2{fill:#67BAB1;stroke:#67BAB1;stroke-width:0.25;stroke-linejoin:round;stroke-miterlimit:1;}
	.st3{fill:#A6DCE7;stroke:#A6DCE7;stroke-width:0.25;stroke-linejoin:round;stroke-miterlimit:1;}
	.st4{fill:#8AD3DD;stroke:#8AD3DD;stroke-width:0.25;stroke-linejoin:round;stroke-miterlimit:1;}
	.st5{fill:#BBE4ED;stroke:#BBE4ED;stroke-width:0.25;stroke-linejoin:round;stroke-miterlimit:1;}
	.st6{fill:#E4F3F7;stroke:#E4F3F7;stroke-width:0.25;stroke-linejoin:round;stroke-miterlimit:1;}
	.st7{fill:#7CCCC8;stroke:#7CCCC8;stroke-width:0.25;stroke-linejoin:round;stroke-miterlimit:1;}
	.st8{fill:#74C3C1;stroke:#74C3C1;stroke-width:0.25;stroke-linejoin:round;stroke-miterlimit:1;}
	.st9{fill:#88D2DD;stroke:#88D2DD;stroke-width:0.25;stroke-linejoin:round;stroke-miterlimit:1;}
	.st10{fill:#8AD3E4;stroke:#8AD3E4;stroke-width:0.25;stroke-linejoin:round;stroke-miterlimit:1;}
	.st11{fill:#64B7AA;stroke:#64B7AA;stroke-width:0.25;stroke-linejoin:round;stroke-miterlimit:1;}
	.st12{fill:#9FDAE4;stroke:#9FDAE4;stroke-width:0.25;stroke-linejoin:round;stroke-miterlimit:1;}
	.st13{fill:#A8DEED;stroke:#A8DEED;stroke-width:0.25;stroke-linejoin:round;stroke-miterlimit:1;}
	.st14{fill:#B1E1F1;stroke:#B1E1F1;stroke-width:0.25;stroke-linejoin:round;stroke-miterlimit:1;}
	.st15{fill:#A0DCF4;stroke:#A0DCF4;stroke-width:0.25;stroke-linejoin:round;stroke-miterlimit:1;}
	.st16{fill:#9CD9E7;stroke:#9CD9E7;stroke-width:0.25;stroke-linejoin:round;stroke-miterlimit:1;}
	.st17{fill:#71C1BC;stroke:#71C1BC;stroke-width:0.25;stroke-linejoin:round;stroke-miterlimit:1;}
	.st18{fill:#9CD8E0;stroke:#9CD8E0;stroke-width:0.25;stroke-linejoin:round;stroke-miterlimit:1;}
	.st19{fill:#B2E1ED;stroke:#B2E1ED;stroke-width:0.25;stroke-linejoin:round;stroke-miterlimit:1;}
	.st20{fill:#7ACCCF;stroke:#7ACCCF;stroke-width:0.25;stroke-linejoin:round;stroke-miterlimit:1;}
	.st21{fill:#D4EDF3;stroke:#D4EDF3;stroke-width:0.25;stroke-linejoin:round;stroke-miterlimit:1;}
	.st22{fill:#7ACCC9;stroke:#7ACCC9;stroke-width:0.25;stroke-linejoin:round;stroke-miterlimit:1;}
	.st23{fill:#8DD3D8;stroke:#8DD3D8;stroke-width:0.25;stroke-linejoin:round;stroke-miterlimit:1;}
	.st24{fill:#6EBEBA;stroke:#6EBEBA;stroke-width:0.25;stroke-linejoin:round;stroke-miterlimit:1;}
	.st25{fill:#80CED0;stroke:#80CED0;stroke-width:0.25;stroke-linejoin:round;stroke-miterlimit:1;}
	.st26{fill:#8CD4E1;stroke:#8CD4E1;stroke-width:0.25;stroke-linejoin:round;stroke-miterlimit:1;}
	.st27{fill:#CDEBF1;stroke:#CDEBF1;stroke-width:0.25;stroke-linejoin:round;stroke-miterlimit:1;}
	.st28{fill:#ADE0F0;stroke:#ADE0F0;stroke-width:0.25;stroke-linejoin:round;stroke-miterlimit:1;}
	.st29{fill:#B9E3EC;stroke:#B9E3EC;stroke-width:0.25;stroke-linejoin:round;stroke-miterlimit:1;}
	.st30{fill:#8DD4E0;stroke:#8DD4E0;stroke-width:0.25;stroke-linejoin:round;stroke-miterlimit:1;}
	.st31{fill:#69BAB3;stroke:#69BAB3;stroke-width:0.25;stroke-linejoin:round;stroke-miterlimit:1;}
	.st32{fill:#CCEAF1;stroke:#CCEAF1;stroke-width:0.25;stroke-linejoin:round;stroke-miterlimit:1;}
	.st33{fill:#9BD9E6;stroke:#9BD9E6;stroke-width:0.25;stroke-linejoin:round;stroke-miterlimit:1;}
	.st34{fill:#A6DDF0;stroke:#A6DDF0;stroke-width:0.25;stroke-linejoin:round;stroke-miterlimit:1;}
	.st35{fill:#A3DDF8;stroke:#A3DDF8;stroke-width:0.25;stroke-linejoin:round;stroke-miterlimit:1;}
	.st36{fill:#79CAC7;stroke:#79CAC7;stroke-width:0.25;stroke-linejoin:round;stroke-miterlimit:1;}
	.st37{fill:#1A1A1A;}
</style>


<style
   id="style755"
   type="text/css">
	.st0{fill:#80CFD3;stroke:#80CFD3;stroke-width:0.25;stroke-linejoin:round;stroke-miterlimit:1;}
	.st1{fill:#8BD3DA;stroke:#8BD3DA;stroke-width:0.25;stroke-linejoin:round;stroke-miterlimit:1;}
	.st2{fill:#67BAB1;stroke:#67BAB1;stroke-width:0.25;stroke-linejoin:round;stroke-miterlimit:1;}
	.st3{fill:#A6DCE7;stroke:#A6DCE7;stroke-width:0.25;stroke-linejoin:round;stroke-miterlimit:1;}
	.st4{fill:#8AD3DD;stroke:#8AD3DD;stroke-width:0.25;stroke-linejoin:round;stroke-miterlimit:1;}
	.st5{fill:#BBE4ED;stroke:#BBE4ED;stroke-width:0.25;stroke-linejoin:round;stroke-miterlimit:1;}
	.st6{fill:#E4F3F7;stroke:#E4F3F7;stroke-width:0.25;stroke-linejoin:round;stroke-miterlimit:1;}
	.st7{fill:#7CCCC8;stroke:#7CCCC8;stroke-width:0.25;stroke-linejoin:round;stroke-miterlimit:1;}
	.st8{fill:#74C3C1;stroke:#74C3C1;stroke-width:0.25;stroke-linejoin:round;stroke-miterlimit:1;}
	.st9{fill:#88D2DD;stroke:#88D2DD;stroke-width:0.25;stroke-linejoin:round;stroke-miterlimit:1;}
	.st10{fill:#8AD3E4;stroke:#8AD3E4;stroke-width:0.25;stroke-linejoin:round;stroke-miterlimit:1;}
	.st11{fill:#64B7AA;stroke:#64B7AA;stroke-width:0.25;stroke-linejoin:round;stroke-miterlimit:1;}
	.st12{fill:#9FDAE4;stroke:#9FDAE4;stroke-width:0.25;stroke-linejoin:round;stroke-miterlimit:1;}
	.st13{fill:#A8DEED;stroke:#A8DEED;stroke-width:0.25;stroke-linejoin:round;stroke-miterlimit:1;}
	.st14{fill:#B1E1F1;stroke:#B1E1F1;stroke-width:0.25;stroke-linejoin:round;stroke-miterlimit:1;}
	.st15{fill:#A0DCF4;stroke:#A0DCF4;stroke-width:0.25;stroke-linejoin:round;stroke-miterlimit:1;}
	.st16{fill:#9CD9E7;stroke:#9CD9E7;stroke-width:0.25;stroke-linejoin:round;stroke-miterlimit:1;}
	.st17{fill:#71C1BC;stroke:#71C1BC;stroke-width:0.25;stroke-linejoin:round;stroke-miterlimit:1;}
	.st18{fill:#9CD8E0;stroke:#9CD8E0;stroke-width:0.25;stroke-linejoin:round;stroke-miterlimit:1;}
	.st19{fill:#B2E1ED;stroke:#B2E1ED;stroke-width:0.25;stroke-linejoin:round;stroke-miterlimit:1;}
	.st20{fill:#7ACCCF;stroke:#7ACCCF;stroke-width:0.25;stroke-linejoin:round;stroke-miterlimit:1;}
	.st21{fill:#D4EDF3;stroke:#D4EDF3;stroke-width:0.25;stroke-linejoin:round;stroke-miterlimit:1;}
	.st22{fill:#7ACCC9;stroke:#7ACCC9;stroke-width:0.25;stroke-linejoin:round;stroke-miterlimit:1;}
	.st23{fill:#8DD3D8;stroke:#8DD3D8;stroke-width:0.25;stroke-linejoin:round;stroke-miterlimit:1;}
	.st24{fill:#6EBEBA;stroke:#6EBEBA;stroke-width:0.25;stroke-linejoin:round;stroke-miterlimit:1;}
	.st25{fill:#80CED0;stroke:#80CED0;stroke-width:0.25;stroke-linejoin:round;stroke-miterlimit:1;}
	.st26{fill:#8CD4E1;stroke:#8CD4E1;stroke-width:0.25;stroke-linejoin:round;stroke-miterlimit:1;}
	.st27{fill:#CDEBF1;stroke:#CDEBF1;stroke-width:0.25;stroke-linejoin:round;stroke-miterlimit:1;}
	.st28{fill:#ADE0F0;stroke:#ADE0F0;stroke-width:0.25;stroke-linejoin:round;stroke-miterlimit:1;}
	.st29{fill:#B9E3EC;stroke:#B9E3EC;stroke-width:0.25;stroke-linejoin:round;stroke-miterlimit:1;}
	.st30{fill:#8DD4E0;stroke:#8DD4E0;stroke-width:0.25;stroke-linejoin:round;stroke-miterlimit:1;}
	.st31{fill:#69BAB3;stroke:#69BAB3;stroke-width:0.25;stroke-linejoin:round;stroke-miterlimit:1;}
	.st32{fill:#CCEAF1;stroke:#CCEAF1;stroke-width:0.25;stroke-linejoin:round;stroke-miterlimit:1;}
	.st33{fill:#9BD9E6;stroke:#9BD9E6;stroke-width:0.25;stroke-linejoin:round;stroke-miterlimit:1;}
	.st34{fill:#A6DDF0;stroke:#A6DDF0;stroke-width:0.25;stroke-linejoin:round;stroke-miterlimit:1;}
	.st35{fill:#A3DDF8;stroke:#A3DDF8;stroke-width:0.25;stroke-linejoin:round;stroke-miterlimit:1;}
	.st36{fill:#79CAC7;stroke:#79CAC7;stroke-width:0.25;stroke-linejoin:round;stroke-miterlimit:1;}
	.st37{fill:#1A1A1A;}
</style><g
   id="g77"
   transform="matrix(3.2605042,0,0,3.2605042,-976.62229,218.39848)"
   style="fill:#ffffff"><g
     transform="matrix(1.4730452,0,0,1.4730452,-641.28728,-376.02114)"
     id="text5513"
     style="font-style:normal;font-weight:normal;font-size:84.27565002px;line-height:1.25;font-family:sans-serif;letter-spacing:0px;word-spacing:0px;fill:#ffffff;fill-opacity:1;stroke:none;stroke-width:2.10689116"
     aria-label="opentradestatistics"><g
   aria-label="opentradestatistics"
   style="font-style:normal;font-weight:normal;font-size:85.33333588px;line-height:1.25;font-family:sans-serif;letter-spacing:0px;word-spacing:0px;fill:#ffffff;fill-opacity:1;stroke:none"
   id="text63"><g
   aria-label="opentradestatistics"
   style="font-style:normal;font-weight:normal;font-size:22.89180374px;line-height:0;font-family:sans-serif;letter-spacing:0px;word-spacing:0px;fill:#ffffff;fill-opacity:1;stroke:none;stroke-width:1.80864525"
   id="text90"><path
     d="m 901.25857,290.97091 c -11.86711,0 -19.04598,8.20443 -19.04598,20.65757 0,13.11242 7.25212,20.73082 19.04598,20.73082 11.86711,0 19.04598,-8.20443 19.04598,-20.65757 0,-13.11242 -7.17887,-20.73082 -19.04598,-20.73082 z m 0,8.49744 c 4.68824,0 7.03236,3.58944 7.03236,12.23338 0,8.42419 -2.34412,12.16013 -7.03236,12.16013 -4.68824,0 -7.03236,-3.58944 -7.03236,-12.23338 0,-8.42419 2.34412,-12.16013 7.03236,-12.16013 z"
     style="font-style:normal;font-variant:normal;font-weight:bold;font-stretch:normal;font-size:73.25377655px;font-family:'Fira Sans';-inkscape-font-specification:'Fira Sans Bold';fill:#ffffff;stroke-width:1.80864525"
     id="path71" /><path
     d="m 948.94564,290.97091 c -3.58944,0 -7.7649,1.53833 -10.98807,5.56729 l -0.58603,-4.32197 h -10.18228 v 55.16009 l 11.5741,-1.24531 v -17.87392 c 2.41738,2.78364 5.64054,4.10221 9.44974,4.10221 9.59624,0 15.45654,-8.79046 15.45654,-20.80408 0,-12.59964 -4.46848,-20.58431 -14.724,-20.58431 z m -4.24872,32.89095 c -2.41738,0 -4.32198,-1.09881 -5.93356,-3.44293 v -16.40884 c 1.68484,-2.8569 4.02896,-4.54174 6.51959,-4.54174 4.02895,0 6.37308,2.56388 6.37308,12.23338 0,8.7172 -2.63714,12.16013 -6.95911,12.16013 z"
     style="font-style:normal;font-variant:normal;font-weight:bold;font-stretch:normal;font-size:73.25377655px;font-family:'Fira Sans';-inkscape-font-specification:'Fira Sans Bold';fill:#ffffff;stroke-width:1.80864525"
     id="path73" /><path
     d="m 1004.8863,310.89594 c 0,-12.59965 -6.81256,-19.92503 -17.94713,-19.92503 -11.79386,0 -18.16694,9.22998 -18.16694,20.87733 0,12.16013 6.59284,20.51106 19.55876,20.51106 6.29982,0 11.28108,-2.34412 15.16351,-5.42078 l -4.76148,-6.44633 c -3.36967,2.34412 -6.15331,3.44292 -9.30323,3.44292 -4.76149,0 -8.05791,-1.9046 -8.79045,-8.8637 h 24.02726 c 0.1465,-1.17206 0.2197,-2.93015 0.2197,-4.17547 z m -11.35429,-2.78364 h -12.96592 c 0.58603,-7.03237 2.78364,-9.44974 6.66609,-9.44974 4.61499,0 6.22657,3.66269 6.29983,8.93696 z"
     style="font-style:normal;font-variant:normal;font-weight:bold;font-stretch:normal;font-size:73.25377655px;font-family:'Fira Sans';-inkscape-font-specification:'Fira Sans Bold';fill:#ffffff;stroke-width:1.80864525"
     id="path75" /><path
     d="m 1034.3847,290.97091 c -4.8347,0 -8.5707,2.05111 -11.8671,5.86031 l -0.8058,-4.61499 h -10.109 v 38.89775 h 11.5741 v -26.59112 c 2.0511,-3.22316 4.1755,-5.05451 6.7393,-5.05451 2.2709,0 3.6627,1.09881 3.6627,5.20102 v 26.44461 h 11.5741 v -28.42246 c 0,-7.39863 -4.0289,-11.72061 -10.7683,-11.72061 z"
     style="font-style:normal;font-variant:normal;font-weight:bold;font-stretch:normal;font-size:73.25377655px;font-family:'Fira Sans';-inkscape-font-specification:'Fira Sans Bold';fill:#ffffff;stroke-width:1.80864525"
     id="path77" /><path
     d="m 1074.3206,321.88401 c -1.5383,0.9523 -2.8569,1.31857 -4.1755,1.31857 -2.4173,0 -3.6626,-1.31857 -3.6626,-5.05452 v -17.87392 h 7.6916 l 1.2453,-8.05791 h -8.9369 v -9.74275 l -11.5741,1.31856 v 8.42419 h -5.4941 v 8.05791 h 5.4941 v 18.02043 c 0,9.15672 4.1754,13.99147 12.7461,14.06473 3.5162,0 7.6184,-1.02556 10.5486,-3.07666 z"
     style="font-style:normal;font-variant:normal;font-weight:bold;font-stretch:normal;font-size:73.25377655px;font-family:'Fira Sans';-inkscape-font-specification:'Fira Sans Bold';fill:#ffffff;stroke-width:1.80864525"
     id="path79" /><path
     d="m 1103.2353,291.11742 c -4.4685,0 -8.2777,3.22317 -10.0358,8.57069 l -0.9523,-7.47188 h -10.109 v 38.89775 h 11.5741 v -19.41225 c 1.2453,-5.8603 3.2964,-9.37648 8.0579,-9.37648 1.3185,0 2.2708,0.21976 3.5162,0.51278 l 1.8313,-11.20783 c -1.2453,-0.36627 -2.4174,-0.51278 -3.8824,-0.51278 z"
     style="font-style:normal;font-variant:normal;font-weight:bold;font-stretch:normal;font-size:73.25377655px;font-family:'Fira Sans';-inkscape-font-specification:'Fira Sans Bold';fill:#ffffff;stroke-width:1.80864525"
     id="path81" /><path
     d="m 1140.9506,319.8329 v -15.09028 c 0,-9.01021 -4.8347,-13.77171 -16.1158,-13.77171 -4.3952,0 -9.7427,1.02556 -14.6507,2.8569 l 2.6371,7.61839 c 3.8824,-1.31856 7.6916,-2.0511 10.1823,-2.0511 4.7615,0 6.5928,1.39182 6.5928,6.00681 v 1.68483 h -3.9557 c -11.7939,0 -18.2402,4.61499 -18.2402,13.11243 0,7.10562 4.908,12.16013 12.6729,12.16013 4.615,0 8.937,-1.53833 11.7206,-5.78705 1.8314,3.8092 4.8348,5.20102 9.3765,5.56729 l 2.4174,-7.54514 c -1.8314,-0.65929 -2.6372,-1.75809 -2.6372,-4.7615 z m -17.5076,4.24872 c -2.8569,0 -4.5417,-1.83134 -4.5417,-4.908 0,-3.88245 2.5638,-5.7138 7.8381,-5.7138 h 2.8569 v 6.95911 c -1.3918,2.27087 -3.5162,3.66269 -6.1533,3.66269 z"
     style="font-style:normal;font-variant:normal;font-weight:bold;font-stretch:normal;font-size:73.25377655px;font-family:'Fira Sans';-inkscape-font-specification:'Fira Sans Bold';fill:#ffffff;stroke-width:1.80864525"
     id="path83" /><path
     d="m 1173.536,275.51437 v 19.11923 c -2.3441,-2.27086 -5.494,-3.66269 -9.0102,-3.66269 -10.0358,0 -16.1159,8.5707 -16.1159,20.58431 0,12.59965 4.908,20.80408 14.7973,20.80408 5.2743,0 8.8637,-2.56388 11.0613,-5.78705 l 0.5861,4.54173 h 10.2555 v -54.3543 z m -6.6661,48.34749 c -3.8092,0 -6.4463,-2.56388 -6.4463,-12.23338 0,-8.7172 2.9301,-12.23338 7.1056,-12.23338 2.4906,0 4.2487,1.24531 6.0068,3.29642 v 16.84837 c -1.8314,2.85689 -3.9557,4.32197 -6.6661,4.32197 z"
     style="font-style:normal;font-variant:normal;font-weight:bold;font-stretch:normal;font-size:73.25377655px;font-family:'Fira Sans';-inkscape-font-specification:'Fira Sans Bold';fill:#ffffff;stroke-width:1.80864525"
     id="path85" /><path
     d="m 1228.0814,310.89594 c 0,-12.59965 -6.8126,-19.92503 -17.9471,-19.92503 -11.7939,0 -18.167,9.22998 -18.167,20.87733 0,12.16013 6.5929,20.51106 19.5588,20.51106 6.2998,0 11.2811,-2.34412 15.1635,-5.42078 l -4.7615,-6.44633 c -3.3697,2.34412 -6.1533,3.44292 -9.3032,3.44292 -4.7615,0 -8.0579,-1.9046 -8.7905,-8.8637 h 24.0273 c 0.1465,-1.17206 0.2197,-2.93015 0.2197,-4.17547 z m -11.3543,-2.78364 h -12.9659 c 0.586,-7.03237 2.7836,-9.44974 6.6661,-9.44974 4.615,0 6.2265,3.66269 6.2998,8.93696 z"
     style="font-style:normal;font-variant:normal;font-weight:bold;font-stretch:normal;font-size:73.25377655px;font-family:'Fira Sans';-inkscape-font-specification:'Fira Sans Bold';fill:#ffffff;stroke-width:1.80864525"
     id="path87" /><path
     d="m 1248.4964,290.97091 c -9.8161,0 -15.8961,5.20102 -15.8961,11.86712 0,6.00681 3.8092,9.96251 11.5008,12.16012 7.0324,1.97785 8.2045,2.78365 8.2045,5.42078 0,2.34412 -2.1244,3.66269 -5.6406,3.66269 -3.8092,0 -7.3986,-1.53833 -10.3288,-3.8092 l -5.6405,6.29983 c 3.8092,3.44293 9.523,5.78705 16.2623,5.78705 9.6695,0 17.2879,-4.7615 17.2879,-12.81941 0,-6.95911 -4.322,-10.18228 -12.0136,-12.37989 -6.9591,-2.05111 -7.9847,-2.93015 -7.9847,-4.98126 0,-1.75809 1.5384,-2.93015 4.6883,-2.93015 3.3697,0 6.5928,1.09881 9.5962,3.00341 l 4.2487,-6.51959 c -3.5894,-2.93015 -8.6439,-4.7615 -14.2844,-4.7615 z"
     style="font-style:normal;font-variant:normal;font-weight:bold;font-stretch:normal;font-size:73.25377655px;font-family:'Fira Sans';-inkscape-font-specification:'Fira Sans Bold';fill:#ffffff;stroke-width:1.80864525"
     id="path89" /><path
     d="m 1290.6482,321.88401 c -1.5383,0.9523 -2.8569,1.31857 -4.1755,1.31857 -2.4174,0 -3.6627,-1.31857 -3.6627,-5.05452 v -17.87392 h 7.6917 l 1.2453,-8.05791 h -8.937 v -9.74275 l -11.5741,1.31856 v 8.42419 h -5.494 v 8.05791 h 5.494 v 18.02043 c 0,9.15672 4.1755,13.99147 12.7462,14.06473 3.5162,0 7.6184,-1.02556 10.5485,-3.07666 z"
     style="font-style:normal;font-variant:normal;font-weight:bold;font-stretch:normal;font-size:73.25377655px;font-family:'Fira Sans';-inkscape-font-specification:'Fira Sans Bold';fill:#ffffff;stroke-width:1.80864525"
     id="path91" /><path
     d="m 1329.3788,319.8329 v -15.09028 c 0,-9.01021 -4.8347,-13.77171 -16.1158,-13.77171 -4.3952,0 -9.7427,1.02556 -14.6507,2.8569 l 2.6371,7.61839 c 3.8824,-1.31856 7.6916,-2.0511 10.1823,-2.0511 4.7615,0 6.5928,1.39182 6.5928,6.00681 v 1.68483 h -3.9557 c -11.7939,0 -18.2402,4.61499 -18.2402,13.11243 0,7.10562 4.908,12.16013 12.6729,12.16013 4.615,0 8.937,-1.53833 11.7206,-5.78705 1.8314,3.8092 4.8348,5.20102 9.3765,5.56729 l 2.4174,-7.54514 c -1.8314,-0.65929 -2.6372,-1.75809 -2.6372,-4.7615 z m -17.5076,4.24872 c -2.8569,0 -4.5417,-1.83134 -4.5417,-4.908 0,-3.88245 2.5638,-5.7138 7.8381,-5.7138 h 2.8569 v 6.95911 c -1.3918,2.27087 -3.5162,3.66269 -6.1533,3.66269 z"
     style="font-style:normal;font-variant:normal;font-weight:bold;font-stretch:normal;font-size:73.25377655px;font-family:'Fira Sans';-inkscape-font-specification:'Fira Sans Bold';fill:#ffffff;stroke-width:1.80864525"
     id="path93" /><path
     d="m 1359.1805,321.88401 c -1.5383,0.9523 -2.8569,1.31857 -4.1755,1.31857 -2.4173,0 -3.6626,-1.31857 -3.6626,-5.05452 v -17.87392 h 7.6916 l 1.2453,-8.05791 h -8.9369 v -9.74275 l -11.5741,1.31856 v 8.42419 h -5.4941 v 8.05791 h 5.4941 v 18.02043 c 0,9.15672 4.1754,13.99147 12.7461,14.06473 3.5162,0 7.6184,-1.02556 10.5486,-3.07666 z"
     style="font-style:normal;font-variant:normal;font-weight:bold;font-stretch:normal;font-size:73.25377655px;font-family:'Fira Sans';-inkscape-font-specification:'Fira Sans Bold';fill:#ffffff;stroke-width:1.80864525"
     id="path95" /><path
     d="m 1372.7119,271.70517 c -4.029,0 -6.8126,2.8569 -6.8126,6.59284 0,3.73594 2.7836,6.59284 6.8126,6.59284 4.0289,0 6.8858,-2.8569 6.8858,-6.59284 0,-3.73594 -2.8569,-6.59284 -6.8858,-6.59284 z m 5.8603,20.51106 h -11.5741 v 38.89775 h 11.5741 z"
     style="font-style:normal;font-variant:normal;font-weight:bold;font-stretch:normal;font-size:73.25377655px;font-family:'Fira Sans';-inkscape-font-specification:'Fira Sans Bold';fill:#ffffff;stroke-width:1.80864525"
     id="path97" /><path
     d="m 1401.2992,290.97091 c -9.8161,0 -15.8961,5.20102 -15.8961,11.86712 0,6.00681 3.8092,9.96251 11.5008,12.16012 7.0324,1.97785 8.2044,2.78365 8.2044,5.42078 0,2.34412 -2.1243,3.66269 -5.6405,3.66269 -3.8092,0 -7.3986,-1.53833 -10.3288,-3.8092 l -5.6405,6.29983 c 3.8092,3.44293 9.523,5.78705 16.2623,5.78705 9.6695,0 17.2879,-4.7615 17.2879,-12.81941 0,-6.95911 -4.322,-10.18228 -12.0136,-12.37989 -6.9591,-2.05111 -7.9847,-2.93015 -7.9847,-4.98126 0,-1.75809 1.5384,-2.93015 4.6883,-2.93015 3.3696,0 6.5928,1.09881 9.5962,3.00341 l 4.2487,-6.51959 c -3.5894,-2.93015 -8.6439,-4.7615 -14.2844,-4.7615 z"
     style="font-style:normal;font-variant:normal;font-weight:bold;font-stretch:normal;font-size:73.25377655px;font-family:'Fira Sans';-inkscape-font-specification:'Fira Sans Bold';fill:#ffffff;stroke-width:1.80864525"
     id="path99" /><path
     d="m 1443.451,321.88401 c -1.5383,0.9523 -2.8569,1.31857 -4.1755,1.31857 -2.4174,0 -3.6627,-1.31857 -3.6627,-5.05452 v -17.87392 h 7.6917 l 1.2453,-8.05791 h -8.937 v -9.74275 l -11.5741,1.31856 v 8.42419 h -5.494 v 8.05791 h 5.494 v 18.02043 c 0,9.15672 4.1755,13.99147 12.7462,14.06473 3.5162,0 7.6184,-1.02556 10.5485,-3.07666 z"
     style="font-style:normal;font-variant:normal;font-weight:bold;font-stretch:normal;font-size:73.25377655px;font-family:'Fira Sans';-inkscape-font-specification:'Fira Sans Bold';fill:#ffffff;stroke-width:1.80864525"
     id="path101" /><path
     d="m 1456.9823,271.70517 c -4.0289,0 -6.8126,2.8569 -6.8126,6.59284 0,3.73594 2.7837,6.59284 6.8126,6.59284 4.029,0 6.8859,-2.8569 6.8859,-6.59284 0,-3.73594 -2.8569,-6.59284 -6.8859,-6.59284 z m 5.8603,20.51106 h -11.5741 v 38.89775 h 11.5741 z"
     style="font-style:normal;font-variant:normal;font-weight:bold;font-stretch:normal;font-size:73.25377655px;font-family:'Fira Sans';-inkscape-font-specification:'Fira Sans Bold';fill:#ffffff;stroke-width:1.80864525"
     id="path103" /><path
     d="m 1488.7195,290.97091 c -11.6473,0 -19.046,8.64395 -19.046,21.02384 0,12.30663 7.3254,20.36455 19.2658,20.36455 5.3475,0 9.523,-1.75809 13.1124,-4.61499 l -5.0545,-7.17887 c -2.7837,1.75809 -4.6883,2.63714 -7.4719,2.63714 -4.615,0 -7.6916,-2.63714 -7.6916,-11.28109 0,-8.7172 2.8569,-12.08687 7.8381,-12.08687 2.6371,0 4.908,0.87905 7.3986,2.78364 l 4.9813,-6.88585 c -3.7359,-3.14991 -7.9114,-4.7615 -13.3322,-4.7615 z"
     style="font-style:normal;font-variant:normal;font-weight:bold;font-stretch:normal;font-size:73.25377655px;font-family:'Fira Sans';-inkscape-font-specification:'Fira Sans Bold';fill:#ffffff;stroke-width:1.80864525"
     id="path105" /><path
     d="m 1520.6227,290.97091 c -9.816,0 -15.8961,5.20102 -15.8961,11.86712 0,6.00681 3.8092,9.96251 11.5009,12.16012 7.0323,1.97785 8.2044,2.78365 8.2044,5.42078 0,2.34412 -2.1244,3.66269 -5.6405,3.66269 -3.8092,0 -7.3987,-1.53833 -10.3288,-3.8092 l -5.6406,6.29983 c 3.8092,3.44293 9.523,5.78705 16.2624,5.78705 9.6695,0 17.2879,-4.7615 17.2879,-12.81941 0,-6.95911 -4.322,-10.18228 -12.0137,-12.37989 -6.9591,-2.05111 -7.9846,-2.93015 -7.9846,-4.98126 0,-1.75809 1.5383,-2.93015 4.6882,-2.93015 3.3697,0 6.5929,1.09881 9.5963,3.00341 l 4.2487,-6.51959 c -3.5895,-2.93015 -8.644,-4.7615 -14.2845,-4.7615 z"
     style="font-style:normal;font-variant:normal;font-weight:bold;font-stretch:normal;font-size:73.25377655px;font-family:'Fira Sans';-inkscape-font-specification:'Fira Sans Bold';fill:#ffffff;stroke-width:1.80864525"
     id="path107" /></g>
</g>



</g></g>
<style
   id="style2-9"
   type="text/css">
	.st0{fill:#80CFD3;stroke:#80CFD3;stroke-width:0.25;stroke-linejoin:round;stroke-miterlimit:1;}
	.st1{fill:#8BD3DA;stroke:#8BD3DA;stroke-width:0.25;stroke-linejoin:round;stroke-miterlimit:1;}
	.st2{fill:#67BAB1;stroke:#67BAB1;stroke-width:0.25;stroke-linejoin:round;stroke-miterlimit:1;}
	.st3{fill:#A6DCE7;stroke:#A6DCE7;stroke-width:0.25;stroke-linejoin:round;stroke-miterlimit:1;}
	.st4{fill:#8AD3DD;stroke:#8AD3DD;stroke-width:0.25;stroke-linejoin:round;stroke-miterlimit:1;}
	.st5{fill:#BBE4ED;stroke:#BBE4ED;stroke-width:0.25;stroke-linejoin:round;stroke-miterlimit:1;}
	.st6{fill:#E4F3F7;stroke:#E4F3F7;stroke-width:0.25;stroke-linejoin:round;stroke-miterlimit:1;}
	.st7{fill:#7CCCC8;stroke:#7CCCC8;stroke-width:0.25;stroke-linejoin:round;stroke-miterlimit:1;}
	.st8{fill:#74C3C1;stroke:#74C3C1;stroke-width:0.25;stroke-linejoin:round;stroke-miterlimit:1;}
	.st9{fill:#88D2DD;stroke:#88D2DD;stroke-width:0.25;stroke-linejoin:round;stroke-miterlimit:1;}
	.st10{fill:#8AD3E4;stroke:#8AD3E4;stroke-width:0.25;stroke-linejoin:round;stroke-miterlimit:1;}
	.st11{fill:#64B7AA;stroke:#64B7AA;stroke-width:0.25;stroke-linejoin:round;stroke-miterlimit:1;}
	.st12{fill:#9FDAE4;stroke:#9FDAE4;stroke-width:0.25;stroke-linejoin:round;stroke-miterlimit:1;}
	.st13{fill:#A8DEED;stroke:#A8DEED;stroke-width:0.25;stroke-linejoin:round;stroke-miterlimit:1;}
	.st14{fill:#B1E1F1;stroke:#B1E1F1;stroke-width:0.25;stroke-linejoin:round;stroke-miterlimit:1;}
	.st15{fill:#A0DCF4;stroke:#A0DCF4;stroke-width:0.25;stroke-linejoin:round;stroke-miterlimit:1;}
	.st16{fill:#9CD9E7;stroke:#9CD9E7;stroke-width:0.25;stroke-linejoin:round;stroke-miterlimit:1;}
	.st17{fill:#71C1BC;stroke:#71C1BC;stroke-width:0.25;stroke-linejoin:round;stroke-miterlimit:1;}
	.st18{fill:#9CD8E0;stroke:#9CD8E0;stroke-width:0.25;stroke-linejoin:round;stroke-miterlimit:1;}
	.st19{fill:#B2E1ED;stroke:#B2E1ED;stroke-width:0.25;stroke-linejoin:round;stroke-miterlimit:1;}
	.st20{fill:#7ACCCF;stroke:#7ACCCF;stroke-width:0.25;stroke-linejoin:round;stroke-miterlimit:1;}
	.st21{fill:#D4EDF3;stroke:#D4EDF3;stroke-width:0.25;stroke-linejoin:round;stroke-miterlimit:1;}
	.st22{fill:#7ACCC9;stroke:#7ACCC9;stroke-width:0.25;stroke-linejoin:round;stroke-miterlimit:1;}
	.st23{fill:#8DD3D8;stroke:#8DD3D8;stroke-width:0.25;stroke-linejoin:round;stroke-miterlimit:1;}
	.st24{fill:#6EBEBA;stroke:#6EBEBA;stroke-width:0.25;stroke-linejoin:round;stroke-miterlimit:1;}
	.st25{fill:#80CED0;stroke:#80CED0;stroke-width:0.25;stroke-linejoin:round;stroke-miterlimit:1;}
	.st26{fill:#8CD4E1;stroke:#8CD4E1;stroke-width:0.25;stroke-linejoin:round;stroke-miterlimit:1;}
	.st27{fill:#CDEBF1;stroke:#CDEBF1;stroke-width:0.25;stroke-linejoin:round;stroke-miterlimit:1;}
	.st28{fill:#ADE0F0;stroke:#ADE0F0;stroke-width:0.25;stroke-linejoin:round;stroke-miterlimit:1;}
	.st29{fill:#B9E3EC;stroke:#B9E3EC;stroke-width:0.25;stroke-linejoin:round;stroke-miterlimit:1;}
	.st30{fill:#8DD4E0;stroke:#8DD4E0;stroke-width:0.25;stroke-linejoin:round;stroke-miterlimit:1;}
	.st31{fill:#69BAB3;stroke:#69BAB3;stroke-width:0.25;stroke-linejoin:round;stroke-miterlimit:1;}
	.st32{fill:#CCEAF1;stroke:#CCEAF1;stroke-width:0.25;stroke-linejoin:round;stroke-miterlimit:1;}
	.st33{fill:#9BD9E6;stroke:#9BD9E6;stroke-width:0.25;stroke-linejoin:round;stroke-miterlimit:1;}
	.st34{fill:#A6DDF0;stroke:#A6DDF0;stroke-width:0.25;stroke-linejoin:round;stroke-miterlimit:1;}
	.st35{fill:#A3DDF8;stroke:#A3DDF8;stroke-width:0.25;stroke-linejoin:round;stroke-miterlimit:1;}
	.st36{fill:#79CAC7;stroke:#79CAC7;stroke-width:0.25;stroke-linejoin:round;stroke-miterlimit:1;}
	.st37{fill:#1A1A1A;}
</style><style
   type="text/css"
   id="style755-2">
	.st0{fill:#80CFD3;stroke:#80CFD3;stroke-width:0.25;stroke-linejoin:round;stroke-miterlimit:1;}
	.st1{fill:#8BD3DA;stroke:#8BD3DA;stroke-width:0.25;stroke-linejoin:round;stroke-miterlimit:1;}
	.st2{fill:#67BAB1;stroke:#67BAB1;stroke-width:0.25;stroke-linejoin:round;stroke-miterlimit:1;}
	.st3{fill:#A6DCE7;stroke:#A6DCE7;stroke-width:0.25;stroke-linejoin:round;stroke-miterlimit:1;}
	.st4{fill:#8AD3DD;stroke:#8AD3DD;stroke-width:0.25;stroke-linejoin:round;stroke-miterlimit:1;}
	.st5{fill:#BBE4ED;stroke:#BBE4ED;stroke-width:0.25;stroke-linejoin:round;stroke-miterlimit:1;}
	.st6{fill:#E4F3F7;stroke:#E4F3F7;stroke-width:0.25;stroke-linejoin:round;stroke-miterlimit:1;}
	.st7{fill:#7CCCC8;stroke:#7CCCC8;stroke-width:0.25;stroke-linejoin:round;stroke-miterlimit:1;}
	.st8{fill:#74C3C1;stroke:#74C3C1;stroke-width:0.25;stroke-linejoin:round;stroke-miterlimit:1;}
	.st9{fill:#88D2DD;stroke:#88D2DD;stroke-width:0.25;stroke-linejoin:round;stroke-miterlimit:1;}
	.st10{fill:#8AD3E4;stroke:#8AD3E4;stroke-width:0.25;stroke-linejoin:round;stroke-miterlimit:1;}
	.st11{fill:#64B7AA;stroke:#64B7AA;stroke-width:0.25;stroke-linejoin:round;stroke-miterlimit:1;}
	.st12{fill:#9FDAE4;stroke:#9FDAE4;stroke-width:0.25;stroke-linejoin:round;stroke-miterlimit:1;}
	.st13{fill:#A8DEED;stroke:#A8DEED;stroke-width:0.25;stroke-linejoin:round;stroke-miterlimit:1;}
	.st14{fill:#B1E1F1;stroke:#B1E1F1;stroke-width:0.25;stroke-linejoin:round;stroke-miterlimit:1;}
	.st15{fill:#A0DCF4;stroke:#A0DCF4;stroke-width:0.25;stroke-linejoin:round;stroke-miterlimit:1;}
	.st16{fill:#9CD9E7;stroke:#9CD9E7;stroke-width:0.25;stroke-linejoin:round;stroke-miterlimit:1;}
	.st17{fill:#71C1BC;stroke:#71C1BC;stroke-width:0.25;stroke-linejoin:round;stroke-miterlimit:1;}
	.st18{fill:#9CD8E0;stroke:#9CD8E0;stroke-width:0.25;stroke-linejoin:round;stroke-miterlimit:1;}
	.st19{fill:#B2E1ED;stroke:#B2E1ED;stroke-width:0.25;stroke-linejoin:round;stroke-miterlimit:1;}
	.st20{fill:#7ACCCF;stroke:#7ACCCF;stroke-width:0.25;stroke-linejoin:round;stroke-miterlimit:1;}
	.st21{fill:#D4EDF3;stroke:#D4EDF3;stroke-width:0.25;stroke-linejoin:round;stroke-miterlimit:1;}
	.st22{fill:#7ACCC9;stroke:#7ACCC9;stroke-width:0.25;stroke-linejoin:round;stroke-miterlimit:1;}
	.st23{fill:#8DD3D8;stroke:#8DD3D8;stroke-width:0.25;stroke-linejoin:round;stroke-miterlimit:1;}
	.st24{fill:#6EBEBA;stroke:#6EBEBA;stroke-width:0.25;stroke-linejoin:round;stroke-miterlimit:1;}
	.st25{fill:#80CED0;stroke:#80CED0;stroke-width:0.25;stroke-linejoin:round;stroke-miterlimit:1;}
	.st26{fill:#8CD4E1;stroke:#8CD4E1;stroke-width:0.25;stroke-linejoin:round;stroke-miterlimit:1;}
	.st27{fill:#CDEBF1;stroke:#CDEBF1;stroke-width:0.25;stroke-linejoin:round;stroke-miterlimit:1;}
	.st28{fill:#ADE0F0;stroke:#ADE0F0;stroke-width:0.25;stroke-linejoin:round;stroke-miterlimit:1;}
	.st29{fill:#B9E3EC;stroke:#B9E3EC;stroke-width:0.25;stroke-linejoin:round;stroke-miterlimit:1;}
	.st30{fill:#8DD4E0;stroke:#8DD4E0;stroke-width:0.25;stroke-linejoin:round;stroke-miterlimit:1;}
	.st31{fill:#69BAB3;stroke:#69BAB3;stroke-width:0.25;stroke-linejoin:round;stroke-miterlimit:1;}
	.st32{fill:#CCEAF1;stroke:#CCEAF1;stroke-width:0.25;stroke-linejoin:round;stroke-miterlimit:1;}
	.st33{fill:#9BD9E6;stroke:#9BD9E6;stroke-width:0.25;stroke-linejoin:round;stroke-miterlimit:1;}
	.st34{fill:#A6DDF0;stroke:#A6DDF0;stroke-width:0.25;stroke-linejoin:round;stroke-miterlimit:1;}
	.st35{fill:#A3DDF8;stroke:#A3DDF8;stroke-width:0.25;stroke-linejoin:round;stroke-miterlimit:1;}
	.st36{fill:#79CAC7;stroke:#79CAC7;stroke-width:0.25;stroke-linejoin:round;stroke-miterlimit:1;}
	.st37{fill:#1A1A1A;}
</style><g
   id="g363"
   transform="translate(-207.72066,-230.6173)"
   style="fill:#ffffff"><g
     style="fill:#ffffff;fill-opacity:1"
     inkscape:label="Layer 1"
     id="layer1"
     transform="matrix(73.121449,0,0,73.121449,2212.9559,-6080.7084)"><g
       transform="translate(-42.068749,-32.808333)"
       aria-label="Open Trade Statistics"
       style="font-style:normal;font-weight:normal;font-size:10.58333302px;line-height:125%;font-family:sans-serif;letter-spacing:0px;word-spacing:0px;fill:#ffffff;fill-opacity:1;stroke:none;stroke-width:0.26458332px;stroke-linecap:butt;stroke-linejoin:miter;stroke-opacity:1"
       id="text817"><path
         inkscape:connector-curvature="0"
         style="font-style:normal;font-variant:normal;font-weight:bold;font-stretch:normal;font-size:16.93333244px;font-family:Montserrat;-inkscape-font-specification:'Montserrat Bold';fill:#ffffff;fill-opacity:1;stroke:none;stroke-width:0.99999994px"
         d="m 32.007812,9.3066406 v 3.1601564 c -4.625522,0.0091 -8.807286,1.009651 -12.544921,3.005859 -3.711999,2.005342 -6.634243,4.778971 -8.767579,8.320313 -2.0906636,3.498671 -3.1367183,7.445199 -3.1367182,11.839843 0,4.394684 1.0460546,8.362993 3.1367182,11.904297 2.133336,3.498671 5.05558,6.250556 8.767579,8.25586 3.754665,2.005341 7.956755,3.007812 12.607421,3.007812 4.650668,0 8.832924,-1.002471 12.544922,-3.007812 3.711999,-2.005304 6.634244,-4.757189 8.767578,-8.25586 2.133332,-3.541304 3.201172,-7.509613 3.201172,-11.904297 0,-4.394644 -1.06784,-8.341172 -3.201172,-11.839843 -0.949069,-1.57546 -2.062706,-2.990257 -3.324218,-4.261719 l -8.751953,5.060547 c 1.172047,0.999388 2.147825,2.203738 2.923828,3.617187 1.237334,2.175988 1.857422,4.650526 1.857422,7.423828 0,2.773342 -0.620088,5.247841 -1.857422,7.423829 -1.194667,2.175987 -2.858852,3.883752 -4.992188,5.121093 -2.133331,1.194671 -4.522636,1.791016 -7.167969,1.791016 -2.645331,0 -5.034633,-0.596345 -7.167968,-1.791016 -2.133336,-1.237341 -3.817357,-2.945106 -5.054688,-5.121093 -1.194667,-2.175988 -1.792969,-4.650487 -1.792968,-7.423829 0,-2.773302 0.598301,-5.24784 1.792968,-7.423828 1.237331,-2.176025 2.921352,-3.861969 5.054688,-5.05664 2.116335,-1.227445 4.485264,-1.843743 7.105468,-1.853516 v 3.125 l 13.078126,-7.558594 z"
         transform="matrix(0.26458333,0,0,0.26458333,12.645519,116.65887)"
         id="path5880" /><path
         style="color:#000000;font-style:normal;font-variant:normal;font-weight:normal;font-stretch:normal;font-size:medium;line-height:125%;font-family:sans-serif;font-variant-ligatures:normal;font-variant-position:normal;font-variant-caps:normal;font-variant-numeric:normal;font-variant-alternates:normal;font-feature-settings:normal;text-indent:0;text-align:start;text-decoration:none;text-decoration-line:none;text-decoration-style:solid;text-decoration-color:#000000;letter-spacing:0px;word-spacing:0px;text-transform:none;writing-mode:lr-tb;direction:ltr;text-orientation:mixed;dominant-baseline:auto;baseline-shift:baseline;text-anchor:start;white-space:normal;shape-padding:0;clip-rule:nonzero;display:inline;overflow:visible;visibility:visible;opacity:1;isolation:auto;mix-blend-mode:normal;color-interpolation:sRGB;color-interpolation-filters:linearRGB;solid-color:#000000;solid-opacity:1;vector-effect:none;fill:#ffffff;fill-opacity:1;fill-rule:evenodd;stroke:none;stroke-width:0.5;stroke-linecap:butt;stroke-linejoin:miter;stroke-miterlimit:4;stroke-dasharray:none;stroke-dashoffset:0;stroke-opacity:1;color-rendering:auto;image-rendering:auto;shape-rendering:auto;text-rendering:auto;enable-background:accumulate"
         d="m 22.158203,120.87155 v 0.5 h 0.392578 v -0.5 z"
         id="path5888"
         inkscape:connector-curvature="0" /></g></g></g></svg>