<?xml version="1.0" encoding="UTF-8" standalone="no"?>
<!-- Generator: Adobe Illustrator 19.2.1, SVG Export Plug-In . SVG Version: 6.00 Build 0)  -->

<svg
   xmlns:dc="http://purl.org/dc/elements/1.1/"
   xmlns:cc="http://creativecommons.org/ns#"
   xmlns:rdf="http://www.w3.org/1999/02/22-rdf-syntax-ns#"
   xmlns:svg="http://www.w3.org/2000/svg"
   xmlns="http://www.w3.org/2000/svg"
   xmlns:sodipodi="http://sodipodi.sourceforge.net/DTD/sodipodi-0.dtd"
   xmlns:inkscape="http://www.inkscape.org/namespaces/inkscape"
   version="1.1"
   id="Layer_1"
   x="0px"
   y="0px"
   viewBox="0 0 714.29999 230.6"
   xml:space="preserve"
   sodipodi:docname="ropensci.svg"
   width="714.29999"
   height="230.60001"
   inkscape:version="0.92.3 (2405546, 2018-03-11)"><metadata
   id="metadata31"><rdf:RDF><cc:Work
       rdf:about=""><dc:format>image/svg+xml</dc:format><dc:type
         rdf:resource="http://purl.org/dc/dcmitype/StillImage" /><dc:title></dc:title></cc:Work></rdf:RDF></metadata><defs
   id="defs29" /><sodipodi:namedview
   pagecolor="#ffffff"
   bordercolor="#666666"
   borderopacity="1"
   objecttolerance="10"
   gridtolerance="10"
   guidetolerance="10"
   inkscape:pageopacity="0"
   inkscape:pageshadow="2"
   inkscape:window-width="1600"
   inkscape:window-height="832"
   id="namedview27"
   showgrid="false"
   fit-margin-top="0"
   fit-margin-left="0"
   fit-margin-right="0"
   fit-margin-bottom="0"
   inkscape:zoom="0.38451613"
   inkscape:cx="-65.207383"
   inkscape:cy="113.34999"
   inkscape:window-x="0"
   inkscape:window-y="32"
   inkscape:window-maximized="1"
   inkscape:current-layer="Layer_1" />
<style
   type="text/css"
   id="style2">
	.st0{fill:#1A1A1A;}
</style>
<g
   id="g24"
   transform="translate(-36.6,-21.1)">
	<g
   id="g20">
		<path
   class="st0"
   d="m 418.7,160.5 c -0.3,-1.6 -0.7,-3.3 -1.1,-4.9 -0.5,-1.9 -1.2,-3.7 -2,-5.5 -0.1,-0.2 -0.2,-0.5 -0.3,-0.7 -7,-15.3 -22.3,-26.2 -40,-26.5 -15.3,-0.3 -28.9,7.2 -37.2,18.7 -1.8,2.4 -3.3,5.1 -4.6,7.9 -0.1,0.2 -0.2,0.4 -0.3,0.7 -0.8,1.8 -1.4,3.6 -2,5.5 -0.5,1.6 -0.8,3.2 -1.1,4.9 -0.3,1.5 -0.5,3.1 -0.6,4.7 -0.1,1.3 -0.1,2.5 -0.1,3.8 0,2.1 0.2,4.2 0.6,6.2 0.3,1.9 0.7,3.7 1.2,5.5 5.4,18.5 22.3,32.3 42.4,32.7 15.3,0.3 28.9,-7.2 37.2,-18.7 l -23.2,-8.5 c -3.3,3.1 -7.6,4.9 -12.1,5.1 -7.8,0.4 -14.4,-3.5 -17.9,-10.7 -0.8,-1.7 -1.5,-3.5 -1.9,-5.5 h 1.5 36.5 25.3 c 0.2,-1.3 0.4,-2.7 0.5,-4.1 0.1,-1.3 0.1,-2.5 0.1,-3.8 -0.3,-2.3 -0.5,-4.6 -0.9,-6.8 z m -63.3,0 c 0.5,-1.7 1.1,-3.4 1.9,-4.9 1.1,-2.1 2.4,-3.9 4,-5.5 h 0.1 -0.1 c 0.2,-0.2 0.5,-0.4 0.7,-0.6 3.2,-2.8 7.1,-4.6 11.3,-4.8 5.2,-0.3 9.8,1.5 13.4,4.8 0.2,0.2 0.5,0.4 0.7,0.7 1.5,1.5 2.8,3.4 3.8,5.5 0.7,1.5 1.3,3.1 1.8,4.9 h -3.1 -34.5 z"
   id="path4"
   inkscape:connector-curvature="0"
   style="fill:#1a1a1a" />
		<path
   class="st0"
   d="m 126.7,62.5 c 0,-17.1 -10.4,-31.8 -25.2,-38.1 -5,-2.1 -10.4,-3.3 -16.1,-3.3 H 36.7 36.6 l 0.1,115.2 h 25.1 v -32.5 h 18.6 l 15.9,32.5 h 27.4 L 104.9,98.9 c 13,-7 21.8,-20.7 21.8,-36.4 z m -25.1,0 c 0,9 -7.3,16.3 -16.3,16.3 H 61.8 V 46.2 h 23.5 c 9,0 16.3,7.3 16.3,16.3 z"
   id="path6"
   inkscape:connector-curvature="0"
   style="fill:#1a1a1a" />
		<path
   class="st0"
   d="m 157.9,99.4 v -8.9 l -21.3,19.5 21.3,20.4 v -8.9 c 20.3,0 32.4,17.6 32.4,35.5 0,17.9 -12.5,36.1 -32.4,36.1 -21.6,0 -32.4,-18.2 -32.4,-36.1 h -25.2 c 0,31.8 25.8,57.6 57.6,57.6 31.8,0 57.6,-25.8 57.6,-57.6 0.1,-31.9 -25.7,-57.6 -57.6,-57.6 z"
   id="path8"
   inkscape:connector-curvature="0"
   style="fill:#1a1a1a" />
		<path
   class="st0"
   d="m 688.8,177.8 c -2.8,8.4 -9.7,13.2 -17.4,13.6 -8.8,0.4 -16,-4.6 -19.2,-13.7 -0.7,-2 -1.2,-4.2 -1.4,-6.6 -0.1,-1.3 -0.2,-2.6 -0.2,-4 0,-0.6 0,-1.3 0.1,-1.9 0.2,-2.4 0.6,-4.6 1.4,-6.7 2.9,-8.1 9.7,-13.5 17.3,-13.9 8.8,-0.4 16,4.8 19.1,14 l 24.7,-4.4 c -5.8,-17.8 -22.4,-31 -41.9,-31.3 -20.4,-0.4 -37.7,13 -43.7,31.3 -1.3,3.9 -2,8.1 -2.2,12.4 0,0.8 0,1.6 0,2.4 0,0.2 0,0.5 0,0.7 0.1,4.3 0.9,8.4 2.2,12.4 5.8,17.8 22.4,31 41.9,31.3 20.4,0.4 37.7,-13 43.7,-31.3 z"
   id="path10"
   inkscape:connector-curvature="0"
   style="fill:#1a1a1a" />
		<rect
   x="725.5"
   y="125.6"
   class="st0"
   width="25.1"
   height="85.900002"
   id="rect12"
   style="fill:#1a1a1a" />
		<path
   class="st0"
   d="m 748.8,108.8 h -21.1 c -1.1,0 -2.1,-0.9 -2.1,-2.1 v -21 c 0,-1.1 0.9,-2.1 2.1,-2.1 h 21.1 c 1.1,0 2.1,0.9 2.1,2.1 v 21.1 c 0,1.1 -1,2 -2.1,2 z"
   id="path14"
   inkscape:connector-curvature="0"
   style="fill:#1a1a1a" />
		<path
   class="st0"
   d="m 609.6,156.8 c -7.7,-9.8 -26.8,-16.6 -36.1,-20 -8.3,-3 -11.3,-5.4 -11.2,-9.5 0.3,-7.8 7.9,-9.5 13,-9.5 11.3,0 13,11.9 13,11.9 l 22.2,-5.5 c 0,0 -4.3,-28.1 -38.9,-28.1 -11.2,0 -23.4,6.6 -29.8,15 -5.7,7.5 -6.4,16.7 -2.7,25.9 4.9,12.3 15,16 25.2,19.7 7.6,2.8 17.8,5.6 24.2,12 3.1,3.1 3.7,8.4 1.5,12.9 -2.3,4.9 -8.8,8.3 -15.1,8.3 -13.8,0 -19.4,-12.4 -19.6,-12.9 l -0.7,-1.7 -25,5 0.6,2.1 c 0.1,0.3 2.3,7.8 9,15.4 6.2,7 17.5,15.4 36.4,15.4 16.1,0 28.9,-6.9 35.8,-19.4 6.5,-11.6 6.8,-26.1 -1.8,-37 z"
   id="path16"
   inkscape:connector-curvature="0"
   style="fill:#1a1a1a" />
		<path
   class="st0"
   d="m 278,123 c -9.1,-0.2 -18.5,2.4 -23.4,7 v -4.2 h -25.1 v 125.9 h 25.1 v -45 c 4.4,4.2 13.3,6.7 21.7,6.9 25.5,0.5 43.5,-20.6 43.1,-46.1 C 318.9,143.4 302,123.5 278,123 Z m -2.6,68.6 c -11.7,0.6 -20.7,-8.5 -20.8,-24 V 167 c 0.1,-12.6 8.7,-21.8 18.7,-22.3 11.7,-0.6 20.8,9.1 20.8,24.6 0,13.7 -8.7,21.7 -18.7,22.3 z"
   id="path18"
   inkscape:connector-curvature="0"
   style="fill:#1a1a1a" />
	</g>
	<path
   class="st0"
   d="m 477,123.3 c -15,0 -22,9.9 -22,9.9 v -7.6 h -23.4 v 85.9 H 455 c 0,0 0,-27.2 0,-40.4 0,-14.1 6.5,-25.3 18,-25.3 11.5,0 17.7,10 17.7,25.3 v 40.4 h 23.7 c 0,0 0,-38.6 0,-47.9 0,-9.2 -2.2,-40.3 -37.4,-40.3 z"
   id="path22"
   inkscape:connector-curvature="0"
   style="fill:#1a1a1a" />
</g>
</svg>